<svg width="160" height="108" viewBox="0 0 160 108" fill="none" xmlns="http://www.w3.org/2000/svg">
<path d="M72.416 0.137839C75.8078 -0.102922 79.2711 0.0387675 82.6698 0.0679571C86.136 0.103326 89.6006 0.214401 93.0636 0.401186C96.5267 0.587829 99.9859 0.850038 103.441 1.18781C106.896 1.52545 110.346 1.93843 113.789 2.42677C117.232 2.91511 120.667 3.47845 124.093 4.11679C127.002 4.62402 129.9 5.21491 132.786 5.88947C134.258 6.22121 135.755 6.50671 137.204 6.96756C137.112 9.71607 136.816 12.4874 136.611 15.2293C136.41 17.9156 136.297 20.6658 135.965 23.3295C136.563 22.8503 137.251 22.4828 137.921 22.1828C142.059 20.3315 148.107 21.5364 152.032 23.7884C155.143 25.573 157.691 28.5566 158.849 32.5615C159.022 33.1623 159.165 33.7736 159.279 34.3953C159.392 35.017 159.475 35.6448 159.526 36.2786C159.752 39.0209 159.586 41.9026 159.597 44.6609C159.607 46.8128 159.808 49.1789 159.57 51.3048C159.483 52.0772 159.276 52.6718 159.004 53.3662C159.077 54.6861 159.386 55.9965 159.488 57.3236C159.679 59.8075 159.6 62.3479 159.601 64.8431C159.601 66.5576 159.694 68.3822 159.523 70.0848C159.452 70.802 159.342 71.5104 159.194 72.2099C159.046 72.9096 158.862 73.5945 158.64 74.2645C157.592 77.382 155.655 79.666 153.101 80.9495C148.143 83.4404 142.293 81.5431 137.568 79.1453C137.189 80.1991 136.506 81.3867 136.371 82.5262C136.187 84.0788 136.867 88.9841 137.058 90.8054C137.261 92.6663 137.418 94.5329 137.528 96.4053C135.825 97.1184 134.003 97.5303 132.246 98.0088C127.28 99.3618 122.092 100.658 117.007 100.987C116.684 101.735 116.305 102.453 115.835 103.077C115.078 104.084 114.164 104.732 113.099 105.136C110.945 105.953 108.431 106.071 106.182 106.35C100.238 107.087 94.3275 107.52 88.3596 107.79C83.2755 108.013 78.1908 108.038 73.1054 107.866C68.02 107.694 62.9442 107.325 57.8782 106.759C54.8801 106.42 51.7201 106.173 48.7675 105.462C46.005 104.797 44.8379 103.735 43.2929 100.911C36.6287 100.678 28.9679 98.5121 22.5256 96.4108C22.7097 93.4493 23.0309 90.4809 23.3098 87.5295C23.4388 86.164 23.8691 83.5659 23.681 82.3116C23.5206 81.2421 22.8524 80.1022 22.4938 79.0878C18.0277 81.4666 11.7508 83.3107 7.02035 81.4134C4.46962 80.3902 2.44097 78.1904 1.24967 75.2595C1.10971 74.911 0.982543 74.5558 0.868171 74.1937C0.753788 73.8318 0.652634 73.4644 0.564711 73.0916C0.476776 72.7187 0.402408 72.3419 0.341609 71.9613C0.280798 71.5805 0.233788 71.1971 0.200579 70.8114C-0.173449 66.6193 0.0937486 61.2595 0.0757571 56.9233L0.104467 43.9141C0.112807 41.5683 0.0106277 39.1243 0.167551 36.788C0.260411 35.4055 0.535022 34.034 0.908928 32.726C1.97471 28.9976 4.49664 25.8451 7.393 24.1449C10.7998 22.1451 15.8624 20.9031 19.6534 21.3118C20.9293 21.4494 22.0974 21.8095 23.3019 22.3292C23.2577 20.5816 23.0302 18.8026 22.8849 17.0606L22.0549 6.96309C25.6544 5.81809 29.4342 5.15909 33.1056 4.43425C39.6128 3.2053 46.1456 2.23246 52.7042 1.51572C59.2626 0.798833 65.8332 0.339538 72.416 0.137839Z" fill="white"/>
<path d="M73.9934 3.43969C79.9895 3.14268 86.0979 3.34508 92.0925 3.6651C95.6312 3.83044 99.1661 4.07681 102.697 4.40421C106.228 4.73176 109.753 5.14007 113.272 5.62912C116.79 6.11831 120.3 6.68797 123.801 7.33809C127.301 7.98822 130.791 8.71838 134.269 9.52859C134.058 14.7774 133.448 19.9923 133.336 25.2505C134.208 25.9005 134.654 26.359 135.118 27.4881C135.14 27.4789 135.161 27.47 135.183 27.4604C135.219 27.4444 135.254 27.4271 135.29 27.4111C136.032 27.083 136.696 26.5421 137.386 26.0801C139.029 24.9805 140.733 24.5972 142.602 24.5955C146.554 24.5919 151.372 25.9777 154.221 29.4953C157.212 33.1898 156.966 37.9079 156.964 42.7156L156.957 50.8263C156.328 50.7019 155.727 50.5293 155.114 50.3207C155.636 51.8322 156.185 53.3394 156.467 54.9499C157.095 58.5243 157.313 68.5908 156.493 71.9581C155.922 74.3003 154.769 76.3222 152.97 77.474C149.479 79.7095 144.175 78.7013 140.601 77.0771C139.23 76.4539 137.98 75.5701 136.572 75.0364C135.724 76.8408 134.148 79.8226 133.707 81.7334C133.408 83.0305 134.519 91.9753 134.702 93.9834C131.573 94.6254 128.485 95.6391 125.345 96.2662C123.446 96.6487 121.542 97.0002 119.635 97.3206C118.323 97.526 116.972 97.6146 115.675 97.9227C115.206 98.8432 114.745 99.8382 114.133 100.631C113.599 101.324 112.991 101.778 112.244 102.05C110.211 102.789 107.042 102.956 104.881 103.184C99.3317 103.812 93.7712 104.213 88.1997 104.388C86.8025 104.535 85.3739 104.508 83.9711 104.53C81.5093 104.575 79.0475 104.575 76.5856 104.53C71.1707 104.447 65.764 104.144 60.3656 103.621C56.9028 103.308 53.4005 102.974 49.9627 102.369C46.6494 101.786 46.4345 100.825 44.5744 97.7962C42.9308 97.543 41.2584 97.5801 39.6037 97.3202C34.8713 96.5766 30.0932 95.3374 25.4643 93.9267C25.5374 91.2839 25.9335 88.5495 26.1992 85.9248C26.3279 84.653 26.657 83.025 26.4459 81.7698C26.2347 80.514 24.2018 75.9374 23.5388 74.7522C22.7355 75.1331 21.9732 75.6634 21.1896 76.1028C17.5778 78.1286 11.3037 79.9132 7.53857 78.1742C5.69527 77.3228 4.42623 75.7401 3.62084 73.5607C3.20559 72.437 2.98049 71.2954 2.89455 70.0699C2.75356 68.0592 2.80621 66.0115 2.80795 63.9953L2.82121 54.2247L2.8189 43.3512C2.82058 41.3825 2.73994 39.3571 2.86819 37.3972C2.9134 36.7248 2.99846 36.0599 3.12336 35.4027C3.24824 34.7455 3.41164 34.1028 3.61355 33.4747C4.59144 30.406 6.49426 28.1185 8.96302 26.8084C11.9394 25.2292 17.2223 24.046 20.4384 24.6332C21.7835 24.8789 23.0204 25.4989 24.2764 26.107C24.7685 25.1601 25.1853 24.6752 26.0767 24.2998C25.9369 22.8827 25.8827 21.4396 25.7686 20.0168L24.9332 9.5109C26.0758 9.17256 27.2799 8.9889 28.4397 8.74409C30.8151 8.23899 33.1946 7.76478 35.5782 7.32147C38.7569 6.73356 41.9428 6.21156 45.136 5.75546C48.3291 5.29936 51.5277 4.90946 54.7318 4.58575C57.9358 4.26204 61.1433 4.00458 64.3545 3.8134C67.5657 3.62235 70.7787 3.49778 73.9934 3.43969Z" fill="#142841"/>
<path d="M76.5275 68.7357C83.209 68.6205 89.885 68.8023 96.5556 69.2811C108.778 70.1033 120.994 71.7624 132.921 75.2153C132.031 77.4111 130.81 79.4335 129.971 81.6504C130.327 84.3913 130.698 87.1289 131.086 89.8634C115.552 85.7732 99.5124 84.1002 83.6386 83.836C68.3241 83.7108 52.84 84.618 37.7366 87.8749C34.9557 88.4746 31.76 88.9949 29.0809 89.995C29.6514 87.2363 29.8427 84.3519 30.3555 81.5676C29.2802 79.4376 28.324 77.2366 27.2109 75.1282C29.371 74.343 31.6516 73.8777 33.8694 73.3962C37.3986 72.6298 40.9043 71.978 44.4651 71.469C49.7864 70.682 55.1206 70.0605 60.4678 69.6047C65.8149 69.1489 71.1681 68.8592 76.5275 68.7357Z" fill="white" fill-opacity="0.1"/>
<path d="M89.1299 71.6494L91.5693 71.6741C92.3344 74.9715 93.4053 78.1866 94.2518 81.4584L92.1645 81.4518C91.9971 80.8863 91.8856 80.2578 91.6471 79.7313C90.7225 79.7343 89.7909 79.6778 88.8662 79.6482C88.7326 80.2241 88.5732 80.7928 88.4233 81.3627C87.7224 81.3525 87.019 81.2971 86.3184 81.2607C87.3999 78.1416 88.1696 74.8302 89.1299 71.6494Z" fill="#142841"/>
<path d="M90.3564 74.4941C90.7087 75.3396 90.8783 76.5359 91.1016 77.4572L91.0343 77.5629L90.6309 77.5477L89.5142 77.5286C89.7497 76.5265 89.9875 75.4344 90.3564 74.4941Z" fill="white" fill-opacity="0.05"/>
<path d="M75.8883 71.6178L78.1611 71.5732C78.6077 72.5025 79.0715 73.4188 79.5527 74.3222C80.0414 73.438 80.4713 72.49 80.9221 71.5756C81.7165 71.5887 82.5105 71.615 83.3042 71.6546C82.4446 73.1228 81.6319 74.6356 80.7796 76.1115C81.7536 77.7755 82.6439 79.5207 83.607 81.1971C83.3159 81.2292 83.0178 81.2301 82.7254 81.2454L81.1287 81.2497L79.485 77.9794C78.9038 79.0791 78.3073 80.1663 77.6955 81.241L75.3545 81.2335C76.0666 79.608 77.318 77.5987 78.2922 76.173C77.8581 75.403 75.9755 72.3778 75.8883 71.6178Z" fill="#142841"/>
<path d="M72.0842 71.6172L72.184 71.7212C72.2961 72.4162 72.2489 73.1994 72.2515 73.9087L69.0401 73.9074L69.07 75.3626C69.9771 75.2531 70.8994 75.2872 71.8104 75.2846L71.8144 77.4142L69.1097 77.431L69.1272 79.1293C69.7225 79.1293 70.3114 79.0292 70.9047 78.9813C71.3447 78.9457 71.9446 78.862 72.2912 79.2276L72.3088 79.7379L72.3351 81.2544C70.5931 81.2282 68.8401 81.3878 67.0986 81.4703L67.1007 71.7661C68.7604 71.6417 70.4233 71.706 72.0842 71.6172Z" fill="#142841"/>
<path d="M99.6606 72.2441C99.9862 72.2497 100.311 72.2573 100.633 72.323C101.651 72.5301 102.276 73.2036 102.855 74.1926C102.354 74.5831 101.841 74.9515 101.333 75.3284C101.132 75.0819 100.916 74.8149 100.672 74.6315C100.295 74.3479 99.8738 74.3726 99.4641 74.5105C99.2797 74.7135 99.2352 74.7346 99.1788 75.0244C99.5412 75.8958 101.688 76.2557 102.449 77.1593C102.845 77.6299 103.097 78.2406 103.097 78.923C103.097 79.6216 102.839 80.4801 102.43 80.9761C101.794 81.7469 100.884 81.8807 100.033 81.8961C99.5762 81.8251 99.1162 81.7614 98.6775 81.5835C97.8167 81.2345 97.36 80.5743 96.9761 79.6052C97.5153 79.2526 98.0517 78.9458 98.6186 78.6648C98.8527 79.0129 99.0872 79.4015 99.4398 79.5756C99.9065 79.8059 100.421 79.8562 100.883 79.6059C101.001 79.4265 101.057 79.3658 101.021 79.116C100.913 78.3635 98.7548 77.8319 98.0211 77.1205C97.5728 76.6858 97.1848 76.0428 97.1352 75.328C97.0824 74.5672 97.4016 73.7741 97.7985 73.2089C98.2981 72.4975 98.9326 72.3255 99.6606 72.2441Z" fill="#142841"/>
<path d="M63.208 71.9385L63.3632 71.9807C63.5299 72.619 63.4365 73.5661 63.4344 74.247C62.7483 74.2679 62.0622 74.2816 61.376 74.2881C61.4447 76.7528 61.412 79.2267 61.413 81.6929C60.7413 81.691 60.066 81.7562 59.3951 81.8014L59.3979 79.3111L59.3997 74.416C58.6659 74.4356 57.9305 74.521 57.1984 74.5851L57.1963 72.3213C59.1967 72.2534 61.2079 72.0589 63.208 71.9385Z" fill="#142841"/>
<path d="M116.059 26.9131C118.298 27.1191 120.542 27.4926 122.772 27.8099C124.584 28.0677 126.474 28.2394 128.251 28.7337C128.561 28.8184 128.865 28.9259 129.165 29.0563C129.464 29.1867 129.755 29.3389 130.039 29.5129C131.129 30.194 132.06 31.4794 132.421 32.9097C133.051 35.407 132.959 45.451 132.66 48.2807C132.555 49.2704 132.381 50.2942 131.991 51.1809C131.542 52.2026 130.92 52.7205 130.037 53.0601C130.299 54.8273 130.747 56.5872 131.086 58.339C131.848 62.2806 132.435 66.1501 133.892 69.819C131.653 69.3809 129.4 68.9557 127.177 68.4126L126.738 66.2099C125.927 61.9448 125.235 57.6484 124.432 53.3812C123.767 53.2534 123.112 53.1579 122.44 53.1021C122.47 57.4995 122.11 63.895 122.904 67.9982C120.65 67.5426 118.371 67.3072 116.123 66.8252C116.722 64.12 116.481 60.8627 116.478 58.0724L116.465 48.5168L116.435 35.9423C116.424 33.7782 116.472 31.5796 116.373 29.4204C116.333 28.5562 116.226 27.7536 116.059 26.9131Z" fill="white"/>
<path d="M122.474 34.2051C123.518 34.318 125.077 34.2978 125.956 35.019C126.456 35.4291 126.667 36.276 126.775 36.9591C127.027 38.5562 127.013 43.8534 126.704 45.3845C126.627 45.7652 126.478 46.0699 126.302 46.3933C125.26 47.3476 123.667 46.9313 122.445 46.816C122.639 42.6483 122.445 38.3862 122.474 34.2051Z" fill="#142841"/>
<path d="M78.3013 24.9418C80.6024 24.8208 82.9317 24.9126 85.236 24.9227C86.9451 31.9175 88.8077 38.906 90.3339 45.9605C90.438 42.7509 90.3423 39.4806 90.3427 36.2653C90.343 33.3454 90.4743 30.3106 90.243 27.4074C90.1776 26.5869 90.0426 25.8729 89.8181 25.0959C91.9708 25.1869 94.124 25.2427 96.2727 25.4378C95.8167 28.2799 95.9426 31.1829 95.9492 34.0639L95.9634 43.7994L95.965 55.5121C95.9669 57.8455 95.9081 60.2346 96.0401 62.5608C96.0912 63.4584 96.3199 64.3207 96.4362 65.2062C94.2961 65.0581 92.1467 64.9997 90.0045 64.91C89.0589 60.6859 87.823 56.5399 86.7309 52.3688L85.1802 46.3747C84.945 45.4534 84.7642 44.5089 84.4834 43.6066C84.6429 45.4698 84.58 47.3748 84.5786 49.2463L84.5714 57.8798C84.57 60.1984 84.549 62.4485 84.8957 64.7411C82.7089 64.5924 80.4944 64.6676 78.3042 64.6757C78.5924 63.6342 78.7354 62.609 78.7861 61.5117C78.8755 59.5732 78.8125 57.6001 78.8132 55.6563L78.8155 44.6667L78.8132 34.0157C78.8125 32.0142 78.8737 29.9848 78.7754 27.9878C78.7232 26.9231 78.6237 25.939 78.3013 24.9418Z" fill="white"/>
<path d="M140.837 29.5135C141.089 29.4806 141.342 29.458 141.596 29.4457C144.347 29.323 148.966 30.3029 151.002 32.6379C152.968 34.8912 152.973 37.934 152.99 40.9903C152.989 42.5144 153.007 44.0382 153.042 45.5616C151.037 45.1336 149.029 44.7266 147.018 44.3405C146.969 42.5159 147.399 38.8499 146.322 37.4379C145.858 36.8299 145.175 36.564 144.505 36.5597C144.044 36.5569 143.58 36.7515 143.252 37.1544C142.542 38.0281 142.51 39.517 142.519 40.6756C142.528 41.7054 142.604 42.7445 142.974 43.6866C143.902 46.047 148.077 49.6758 149.767 51.7131C153.013 55.6267 153.099 58.1366 153.115 63.4148C153.124 66.1539 153.375 70.2997 151.636 72.3617C150.418 73.8063 149.002 73.8459 147.413 73.7967C144.598 73.4781 141.058 72.6879 138.847 70.3649C135.363 66.7059 136.667 61.0242 136.347 56.111C138.366 56.6811 140.439 57.0269 142.438 57.6806C142.395 59.5805 142.248 61.6118 142.431 63.4968C142.521 64.4204 142.791 65.3338 143.421 65.9099C143.948 66.393 144.735 66.6322 145.387 66.5052C145.856 66.414 146.248 66.1034 146.509 65.621C147.021 64.6765 146.948 63.3713 146.941 62.2845C146.933 61.1672 146.988 59.8334 146.653 58.7775C146.245 57.4935 145.266 56.4344 144.449 55.5308C141.64 52.4254 137.37 49.0912 136.638 44.2609C136.305 42.0648 136.303 36.3155 136.687 34.1487C136.842 33.2728 137.131 32.4131 137.559 31.6816C138.374 30.2873 139.51 29.7715 140.837 29.5135Z" fill="white"/>
<path d="M69.5942 25.0529C70.3174 24.9902 71.0528 25.0158 71.778 25.0111C71.5551 26.0057 71.485 26.9152 71.5219 27.9452C71.599 30.0916 71.8941 32.2512 72.1312 34.3788C72.4963 37.758 72.8885 41.1325 73.3079 44.5023C73.7344 48.188 74.1874 51.8688 74.667 55.5449C75.0698 58.6047 75.3494 61.8775 76.361 64.7396C74.0379 64.6912 71.711 64.8284 69.3879 64.873C69.6386 62.4948 69.2991 60.3524 68.992 58.0139C68.2444 58.0343 64.5109 58.0298 64.1354 58.4036L64.1156 58.7947C63.9135 60.9586 63.6769 62.9271 64.1946 65.0522C61.8089 65.0971 59.3985 65.3064 57.0171 65.4996C57.9794 62.3066 58.2679 58.8757 58.668 55.5246L59.9695 44.5479L61.1265 34.7163C61.3657 32.7056 61.6673 30.6722 61.8017 28.6474C61.8743 27.554 61.8196 26.5287 61.6816 25.4464C64.309 25.4097 66.9689 25.2195 69.5942 25.0529Z" fill="white"/>
<path d="M66.7018 34.0107L66.7978 34.0821C66.9532 34.3391 68.3656 50.0565 68.623 51.9351L66.6133 51.9579C65.9702 51.9576 65.3347 52.006 64.6934 52.0625C65.4826 46.076 65.9793 40.0138 66.7018 34.0107Z" fill="#142841"/>
<path d="M16.8862 29.7377C17.3169 29.6734 17.786 29.68 18.2203 29.6798C19.5956 29.6792 20.987 30.0546 21.9784 31.3046C23.6625 33.4286 23.4719 36.7978 23.4719 39.5239L23.4649 44.2258C21.4416 44.591 19.3673 45.0804 17.3749 45.6465C17.4854 43.961 17.7489 38.6691 16.9231 37.3454C16.6175 36.8553 16.1431 36.668 15.6578 36.6084C14.9897 36.5261 14.2957 36.6806 13.7756 37.2258C13.1239 37.9087 12.8992 38.9894 12.8296 39.992C12.6968 41.9021 12.8141 43.9047 12.8174 45.8246C12.8065 49.4563 12.8122 53.0881 12.8345 56.7198C12.8527 59.2109 12.6319 62.0202 12.8136 64.4582C12.8616 65.1025 12.9837 65.7654 13.3528 66.2565C13.6822 66.6945 14.1338 66.8791 14.612 66.8984C15.3322 66.9276 16.1561 66.6803 16.6794 66.0453C17.8634 64.6082 17.4454 59.8874 17.4289 57.881C18.9039 57.6289 20.3674 57.2341 21.8282 56.8798L23.5307 56.4613C23.3619 60.5242 24.1481 66.1717 22.0555 69.515C20.0897 72.6558 15.7307 73.5888 12.6627 74.0665C11.1711 74.2987 9.45584 74.3009 8.22843 73.0796C7.20255 72.0586 6.76977 70.4583 6.63147 68.9053C6.44353 66.7951 6.5255 64.5999 6.52513 62.4778L6.51537 52.5295L6.50674 43.8576C6.50564 41.9923 6.41168 40.0415 6.63642 38.1944C6.82651 36.6324 7.27273 35.1242 8.09594 33.8886C10.1388 30.8229 13.8424 30.1083 16.8862 29.7377Z" fill="white"/>
<path d="M99.4717 25.5332C100.633 25.713 101.842 25.6566 103.013 25.7452C106.429 26.0037 109.927 26.1916 113.32 26.7291C113.088 29.1406 113.251 31.7425 113.264 34.1733C111.12 33.004 108.144 33.1144 105.828 32.9768C105.875 36.057 105.909 39.175 105.833 42.2535C107.865 42.2663 109.828 42.7476 111.867 42.4323C111.853 44.8684 111.776 47.3487 111.943 49.778C109.941 49.34 107.871 49.3003 105.845 49.079C105.812 52.1042 105.859 55.138 105.863 58.1644C105.849 58.3953 105.851 58.5669 105.897 58.7923C106.647 59.1328 110.814 59.3083 111.788 59.2759C112.342 59.2576 112.875 59.1594 113.42 59.0437L113.425 66.76C111.505 66.3703 109.512 66.2718 107.57 66.0844C104.927 65.8293 102.271 65.5202 99.6201 65.4456C99.9751 63.116 99.8717 60.6626 99.8703 58.3014L99.8635 49.3747L99.8549 36.285C99.8541 33.6956 99.9128 31.0826 99.8028 28.4971C99.7595 27.48 99.66 26.5256 99.4717 25.5332Z" fill="white"/>
<path d="M54.5292 25.8167C54.646 25.7982 54.7635 25.7771 54.881 25.7673C55.0708 25.7518 55.2703 25.6932 55.4181 25.8449C55.3779 28.4378 55.3873 31.0305 55.4464 33.6229C53.203 32.7283 50.5195 33.1689 48.2064 33.5599L48.2112 42.8345C50.0808 42.435 52.0072 42.4386 53.8831 42.0421C53.7527 44.4423 53.7653 46.9168 53.9097 49.3154C51.9955 49.2304 50.1164 49.4863 48.2096 49.6288L48.2059 59.5064C50.653 59.0965 53.0433 59.1101 55.4763 58.4535C55.4505 60.6837 55.4598 62.9136 55.5039 65.1432L55.5141 65.5338C55.4588 65.5864 55.4151 65.6661 55.3483 65.6921C55.0742 65.7982 52.338 65.9213 51.7098 65.9844C48.4334 66.331 45.1609 66.7246 41.8921 67.1654C42.137 65.9543 42.2643 64.735 42.3164 63.4894C42.406 61.3537 42.3484 59.1841 42.3467 57.0443L42.3434 46.2876L42.3346 36.1396C42.3285 33.3734 42.5434 29.797 41.9503 27.1561C43.4034 27.1073 44.8865 26.8554 46.3358 26.6867C49.0703 26.3682 51.7878 26.0518 54.5292 25.8167Z" fill="white"/>
<path d="M32.6179 28.2424C32.8365 28.194 32.7324 28.177 32.9303 28.2895C33.0179 28.9103 32.7955 29.7415 32.7543 30.3899C32.6824 31.4699 32.6465 32.5518 32.6466 33.6354L32.6509 61.4205C34.9734 60.8736 37.3345 60.5738 39.6488 59.9747L39.6446 67.3756C37.597 67.639 35.5579 68.0602 33.5231 68.442C31.0779 68.9028 28.615 69.3673 26.1904 69.9684C26.3614 69.4276 26.4977 68.8742 26.5992 68.3082C26.7009 67.7421 26.7666 67.1699 26.7964 66.5915C26.925 64.4319 26.8805 62.2527 26.8814 60.0887L26.8832 50.3683L26.8812 38.8542C26.8805 35.7454 27.1075 32.3999 26.4793 29.3712C28.5335 29.1145 30.5789 28.6412 32.6179 28.2424Z" fill="white"/>
<path d="M77.5954 7.78935C77.6729 7.78026 77.7505 7.77352 77.8283 7.76911C77.9062 7.76457 77.984 7.76244 78.0619 7.76272C78.1398 7.76286 78.2176 7.76535 78.2953 7.77018C78.3731 7.77515 78.4507 7.78233 78.5282 7.7917C78.6057 7.80122 78.6829 7.813 78.7599 7.82707C78.8369 7.84127 78.9136 7.85767 78.99 7.87628C79.0663 7.89489 79.1423 7.91584 79.2178 7.93914C79.2933 7.96229 79.3683 7.98772 79.4428 8.01541C79.5173 8.04311 79.5911 8.07301 79.6643 8.10511C79.7377 8.13721 79.8103 8.17145 79.8822 8.20781C79.9541 8.24432 80.0252 8.28288 80.0955 8.32351C80.1659 8.36413 80.2354 8.40688 80.3041 8.45177C80.3728 8.49651 80.4404 8.54331 80.5071 8.59217C80.5739 8.64104 80.6396 8.69189 80.7043 8.74473C80.769 8.79757 80.8327 8.85225 80.8953 8.90878C80.9577 8.96532 81.019 9.02377 81.0792 9.08413C81.1393 9.14436 81.1983 9.20636 81.256 9.27014C81.3137 9.33392 81.37 9.39933 81.425 9.46637C81.48 9.53356 81.5337 9.60231 81.5861 9.67262C81.6383 9.74293 81.6891 9.8148 81.7385 9.88824C81.788 9.96153 81.8359 10.0363 81.8822 10.1126C81.9286 10.1887 81.9735 10.2663 82.0167 10.3453C82.06 10.4241 82.1016 10.5042 82.1415 10.5856C82.1816 10.667 82.22 10.7495 82.2568 10.8332C82.2935 10.917 82.3285 11.0017 82.3619 11.0874C82.3952 11.1731 82.4268 11.2599 82.4566 11.3475C82.4865 11.4351 82.5145 11.5236 82.5407 11.613C82.5669 11.7023 82.5914 11.7924 82.6142 11.8831C82.6368 11.974 82.6576 12.0655 82.6766 12.1576C82.6956 12.2496 82.7127 12.3421 82.728 12.4352C82.7431 12.5282 82.7565 12.6216 82.768 12.7154C82.7796 12.8092 82.7892 12.9034 82.7969 12.9979C82.8046 13.0923 82.8104 13.1869 82.8143 13.2817C82.8182 13.3764 82.8202 13.4712 82.8203 13.5661C82.8204 13.661 82.8186 13.7559 82.8149 13.8508C82.8111 13.9455 82.8055 14.0401 82.7981 14.1346C82.7905 14.229 82.7811 14.3232 82.7698 14.4171C82.7585 14.511 82.7453 14.6044 82.7302 14.6975C82.7152 14.7907 82.6983 14.8833 82.6795 14.9753C82.6608 15.0674 82.6401 15.1588 82.6176 15.2497C82.5951 15.3407 82.5708 15.4308 82.5447 15.5201C82.5187 15.6096 82.4909 15.6982 82.4612 15.7858C82.4316 15.8736 82.4002 15.9604 82.3671 16.0464C82.3339 16.1322 82.299 16.217 82.2625 16.3008C82.2259 16.3846 82.1877 16.4673 82.1478 16.5488C82.108 16.6303 82.0665 16.7106 82.0235 16.7895C81.9804 16.8687 81.9357 16.9464 81.8894 17.0226C81.8433 17.0991 81.7955 17.1741 81.7462 17.2476C81.697 17.3211 81.6464 17.393 81.5943 17.4635C81.5422 17.5341 81.4887 17.603 81.4338 17.6703C81.3789 17.7375 81.3226 17.8032 81.265 17.8672C81.2075 17.9311 81.1487 17.9933 81.0886 18.0536C81.0286 18.1142 80.9674 18.1727 80.905 18.2294C80.8427 18.2862 80.7792 18.3411 80.7146 18.3941C80.6499 18.4471 80.5843 18.4982 80.5178 18.5473C80.4511 18.5963 80.3835 18.6433 80.3149 18.6884C80.2464 18.7334 80.177 18.7764 80.1067 18.8173C80.0364 18.8582 79.9654 18.8969 79.8936 18.9336C79.8218 18.9702 79.7492 19.0048 79.6759 19.0371C79.6027 19.0694 79.5289 19.0995 79.4545 19.1275C79.38 19.1553 79.3051 19.181 79.2297 19.2044C79.1543 19.2278 79.0784 19.2491 79.002 19.2681C78.9257 19.287 78.849 19.3036 78.7721 19.318C78.6952 19.3323 78.618 19.3443 78.5404 19.354C78.4627 19.3638 78.3848 19.3712 78.3067 19.3763C78.2286 19.3813 78.1504 19.384 78.0722 19.3844C77.994 19.3849 77.9158 19.3829 77.8376 19.3787C77.7595 19.3744 77.6815 19.3678 77.6036 19.3589C77.5258 19.3499 77.4481 19.3386 77.3707 19.325C77.2933 19.3114 77.2162 19.2954 77.1394 19.2773C77.0627 19.2589 76.9864 19.2384 76.9104 19.2157C76.8345 19.1928 76.7591 19.1678 76.6841 19.1405C76.6092 19.1131 76.5349 19.0835 76.4612 19.0518C76.3874 19.02 76.3143 18.986 76.2419 18.9498C76.1697 18.9136 76.0981 18.8753 76.0272 18.8349C75.9565 18.7945 75.8865 18.7519 75.8174 18.7071C75.7483 18.6625 75.6802 18.6158 75.613 18.5671C75.5458 18.5184 75.4795 18.4677 75.4144 18.415C75.3492 18.3622 75.2852 18.3075 75.2222 18.2509C75.1593 18.1944 75.0975 18.136 75.0369 18.0758C74.9763 18.0156 74.917 17.9535 74.8589 17.8896C74.8007 17.8258 74.744 17.7603 74.6886 17.6931C74.6331 17.626 74.579 17.5571 74.5264 17.4867C74.4737 17.4162 74.4224 17.3442 74.3727 17.2706C74.323 17.1971 74.2748 17.1221 74.2281 17.0456C74.1813 16.9692 74.1362 16.8915 74.0926 16.8123C74.049 16.7332 74.007 16.6528 73.9667 16.5712C73.9263 16.4895 73.8876 16.4067 73.8506 16.3227C73.8136 16.2388 73.7784 16.1538 73.7448 16.0677C73.7112 15.9816 73.6794 15.8946 73.6493 15.8067C73.6193 15.7186 73.591 15.6298 73.5645 15.5401C73.5381 15.4505 73.5134 15.3601 73.4906 15.2689C73.4677 15.1777 73.4468 15.0859 73.4278 14.9934C73.4087 14.9011 73.3914 14.8082 73.376 14.7147C73.3607 14.6213 73.3472 14.5274 73.3357 14.4331C73.3241 14.3389 73.3144 14.2444 73.3066 14.1495C73.2989 14.0546 73.2931 13.9596 73.2892 13.8644C73.2852 13.7692 73.2832 13.674 73.2832 13.5787C73.2831 13.4834 73.285 13.3881 73.2888 13.293C73.2925 13.1978 73.2982 13.1028 73.3058 13.0079C73.3135 12.913 73.323 12.8184 73.3344 12.7241C73.3459 12.6299 73.3591 12.5361 73.3743 12.4426C73.3896 12.349 73.4067 12.256 73.4257 12.1635C73.4447 12.0711 73.4655 11.9792 73.4881 11.888C73.5109 11.7968 73.5354 11.7064 73.5617 11.6166C73.5881 11.527 73.6162 11.4381 73.6462 11.3501C73.676 11.262 73.7077 11.1749 73.7411 11.0886C73.7746 11.0026 73.8098 10.9175 73.8467 10.8334C73.8836 10.7493 73.9221 10.6664 73.9623 10.5847C74.0025 10.5029 74.0444 10.4225 74.0878 10.3433C74.1313 10.2641 74.1764 10.1862 74.223 10.1096C74.2696 10.033 74.3178 9.95798 74.3674 9.8844C74.4171 9.81082 74.4682 9.73873 74.5208 9.66814C74.5733 9.59754 74.6273 9.52859 74.6827 9.46126C74.738 9.39393 74.7947 9.32831 74.8526 9.26439C74.9107 9.20047 74.9699 9.13832 75.0304 9.07796C75.0909 9.01745 75.1526 8.95885 75.2156 8.90218C75.2784 8.8455 75.3424 8.79075 75.4074 8.73791C75.4726 8.68507 75.5387 8.63422 75.6058 8.58535C75.673 8.53649 75.7411 8.48962 75.8101 8.44474C75.8791 8.39999 75.949 8.35731 76.0197 8.31668C76.0905 8.27606 76.162 8.23757 76.2344 8.20121C76.3067 8.16499 76.3796 8.13089 76.4533 8.09893C76.527 8.06697 76.6013 8.03722 76.6762 8.00966C76.7511 7.98225 76.8264 7.95704 76.9023 7.93403C76.9783 7.91102 77.0547 7.89035 77.1314 7.87202C77.2081 7.85356 77.2851 7.83744 77.3625 7.82366C77.4399 7.80988 77.5175 7.79844 77.5954 7.78935Z" fill="white"/>
<path d="M77.7265 10.4249C78.1811 10.3927 78.585 10.4002 79.005 10.6348C79.6449 10.9919 80.0925 11.634 80.3214 12.4407C80.351 12.5454 80.3762 12.6516 80.3969 12.7592C80.4175 12.867 80.4337 12.9758 80.4453 13.0856C80.457 13.1953 80.464 13.3054 80.4663 13.4161C80.4688 13.5267 80.4665 13.6373 80.4597 13.7476C80.4529 13.858 80.4415 13.9676 80.4254 14.0766C80.4094 14.1855 80.3889 14.2932 80.3639 14.3996C80.3389 14.506 80.3095 14.6105 80.2757 14.7132C80.2421 14.8161 80.2041 14.9165 80.1619 15.0145C79.7822 15.8934 79.1714 16.3866 78.4112 16.6815C77.9573 16.7077 77.5326 16.6634 77.1103 16.4431C77.0339 16.4033 76.9594 16.3587 76.8869 16.3093C76.8144 16.2598 76.7442 16.206 76.6762 16.1478C76.6083 16.0894 76.543 16.0268 76.4806 15.9601C76.4181 15.8933 76.3586 15.8228 76.3022 15.7485C76.2458 15.6741 76.1927 15.5963 76.1429 15.5152C76.0933 15.4341 76.0472 15.35 76.0046 15.2629C75.9622 15.1758 75.9236 15.0863 75.8889 14.9942C75.8541 14.9022 75.8235 14.8082 75.7969 14.7124C75.5506 13.845 75.5965 12.8327 75.9468 12.0163C76.3487 11.0792 76.9411 10.727 77.7265 10.4249Z" fill="#142841"/>
<path d="M114.314 10.0713C115.448 10.1597 116.596 10.2854 117.723 10.462C118.852 10.6391 120.01 11.0288 120.721 12.2013C121.287 13.1334 121.417 14.3713 121.275 15.4961C121.129 16.6592 120.59 17.351 119.855 18.0313C120.391 19.405 120.922 20.7821 121.447 22.1626L119.963 22.0058C119.63 22.0011 119.279 21.9276 118.946 21.8882C118.59 20.88 118.229 19.5213 117.618 18.7114C117.375 18.3886 117.08 18.3311 116.734 18.3204C116.393 18.8115 116.614 20.8621 116.633 21.5396L114.303 21.2505L114.314 10.0713Z" fill="white"/>
<path d="M116.624 12.8457C117.214 12.912 117.845 12.9311 118.387 13.2514C118.702 13.4376 118.92 13.6805 119.025 14.0994C119.154 14.6139 118.947 15.2412 118.757 15.6909C118.067 16.125 117.329 15.9522 116.589 15.8546C116.587 14.8523 116.612 13.8479 116.624 12.8457Z" fill="#142841"/>
<path d="M95.4175 8.39062C96.0817 8.39084 96.7234 8.40149 97.3813 8.51952C98.5821 10.7108 99.7391 12.9357 100.853 15.1944C100.821 13.0678 100.825 10.9382 100.812 8.81121C101.564 8.85737 102.317 8.89565 103.07 8.92605L103.104 20.1246C102.401 20.1078 101.698 20.0492 100.996 20.0027L97.6172 13.3531C97.7908 15.4347 97.6887 17.615 97.6878 19.7083C96.9332 19.6751 96.1746 19.684 95.4194 19.6751L95.4175 8.39062Z" fill="white"/>
<path d="M36.1696 11.3051C36.3808 11.2578 36.4964 11.2165 36.6941 11.3351C36.8445 12.4282 36.7307 13.6967 36.7321 14.8155C36.7267 17.3102 36.7433 19.8047 36.7819 22.2989C35.9876 22.411 35.1961 22.5464 34.4073 22.7052L34.3995 18.4644C33.5027 18.6901 32.5942 18.7923 31.6846 18.9123C31.688 20.3238 31.674 21.7384 31.7451 23.1478L29.9591 23.5008C29.7853 23.5309 29.6383 23.5326 29.4634 23.5144C29.2512 23.0517 29.3508 13.528 29.3452 12.3623C30.1212 12.2596 30.8889 12.1241 31.6596 11.9758C31.7007 13.4131 31.6778 14.8579 31.6763 16.2965C32.5806 16.097 33.4895 15.9367 34.4031 15.8156L34.3902 11.6275C34.9812 11.5071 35.5767 11.411 36.1696 11.3051Z" fill="white"/>
<path d="M85.0934 7.93555L87.3779 7.96815C87.3709 9.8007 87.1931 13.501 87.4171 15.1467C87.476 15.58 87.6089 16.0368 87.8518 16.3694C88.0782 16.6794 88.3824 16.8437 88.7221 16.8516C89.14 16.8614 89.6116 16.6867 89.9104 16.3183C90.122 16.0573 90.1949 15.7251 90.2405 15.3723C90.3542 14.4953 90.2823 13.5255 90.2769 12.6364L90.2531 8.05742L92.621 8.18462L92.6205 10.6792C92.6327 12.8341 93.0417 16.4327 91.7704 18.0854C91.0749 18.9899 90.0459 19.4318 89.0437 19.4556C87.9717 19.481 86.7581 19.0787 85.9925 18.1202C85.6017 17.631 85.3873 17.0512 85.2574 16.3937C84.8822 14.4936 85.0934 10.1363 85.0934 7.93555Z" fill="white"/>
<path d="M67.4543 7.99824C67.9228 7.93773 68.4658 8.02338 68.9216 8.1608C70.074 8.50767 71.0007 9.36738 71.602 10.6042C71.0137 11.1083 70.3907 11.5647 69.7849 12.0383C69.639 11.8468 69.4925 11.6552 69.3369 11.4752C68.8809 10.9477 68.1945 10.5605 67.5566 10.6117C66.951 10.6602 66.4044 11.067 66.0128 11.6167C65.4999 12.3362 65.2749 13.2882 65.3272 14.2314C65.3712 15.0304 65.6312 15.8541 66.1584 16.3614C66.6357 16.8205 67.2989 16.9831 67.8948 16.8893C68.6218 16.7749 69.1343 16.2738 69.567 15.5865L70.4167 16.0548C70.8431 16.2954 71.2663 16.5442 71.6863 16.8011C70.9138 18.1413 69.9361 19.1369 68.5823 19.4653C67.3344 19.768 65.9145 19.4825 64.8588 18.6088C64.797 18.5566 64.7363 18.5027 64.6766 18.4468C64.617 18.391 64.5586 18.3333 64.5014 18.2738C64.4442 18.2145 64.3881 18.1534 64.3334 18.0906C64.2787 18.0278 64.2253 17.9634 64.1732 17.8973C64.1211 17.8312 64.0704 17.7635 64.0211 17.6945C63.9718 17.6253 63.9239 17.5547 63.8775 17.4825C63.8312 17.4105 63.7862 17.3371 63.7427 17.2622C63.6994 17.1873 63.6576 17.1113 63.6174 17.034C63.577 16.9566 63.5383 16.878 63.5013 16.7984C63.4642 16.7187 63.4288 16.6379 63.3951 16.5559C63.3615 16.4741 63.3294 16.3913 63.299 16.3075C63.2687 16.2237 63.2401 16.1389 63.2133 16.0533C63.1864 15.9678 63.1613 15.8814 63.1379 15.7942C63.1146 15.7071 63.0931 15.6194 63.0734 15.5311C63.0537 15.4426 63.0358 15.3536 63.0198 15.2641C63.0037 15.1746 62.9895 15.0847 62.9771 14.9944C62.9628 14.8928 62.9505 14.7908 62.9404 14.6884C62.9303 14.5861 62.9224 14.4836 62.9166 14.3807C62.9108 14.2779 62.9071 14.1749 62.9056 14.0718C62.9041 13.9688 62.9047 13.8658 62.9075 13.7629C62.9103 13.6597 62.9152 13.5568 62.9222 13.4541C62.9293 13.3514 62.9386 13.249 62.95 13.1469C62.9613 13.0448 62.9748 12.9431 62.9904 12.8418C63.006 12.7405 63.0237 12.6397 63.0435 12.5395C63.0635 12.4393 63.0854 12.3398 63.1093 12.241C63.1333 12.1421 63.1593 12.044 63.1874 11.9467C63.2155 11.8496 63.2456 11.7533 63.2777 11.6578C63.3098 11.5625 63.3439 11.4682 63.3799 11.3751C63.416 11.2817 63.4539 11.1896 63.4938 11.0987C63.5337 11.0078 63.5755 10.9183 63.6191 10.8301C63.6627 10.7417 63.7082 10.6548 63.7555 10.5693C63.8027 10.4838 63.8517 10.3998 63.9025 10.3174C64.8014 8.87222 66.0315 8.24539 67.4543 7.99824Z" fill="white"/>
<path d="M98.5313 89.6416L100.418 89.6655C100.341 92.7244 100.462 95.7914 100.389 98.8506L98.6583 98.903C97.659 97.2352 96.6769 95.3282 95.9218 93.4842C95.9573 95.2716 95.938 97.0649 95.9419 98.8532L94.0242 98.8619L94.0205 89.6546L95.9477 89.6459C96.7991 91.4047 97.7648 93.0841 98.6411 94.8269C98.4836 93.1247 98.542 91.3551 98.5313 89.6416Z" fill="white"/>
<path d="M122.571 11.124C123.424 11.2706 124.285 11.3552 125.14 11.4926C125.79 12.9738 126.301 14.5526 126.84 16.0975C127.381 14.7657 127.96 13.4673 128.556 12.1706C129.348 12.3169 130.14 12.456 130.933 12.588C130.393 14.0668 129.58 15.4741 128.878 16.8503C127.618 19.2847 127.913 20.6311 127.944 23.3432C127.186 23.2285 126.428 23.1197 125.669 23.0168C125.651 21.7465 125.783 20.3859 125.612 19.1326C125.351 17.2151 123.383 13.0612 122.571 11.124Z" fill="white"/>
<path d="M61.4071 89.648C62.1646 89.677 62.9264 89.6518 63.6843 89.6465C64.498 92.7395 65.4425 95.7816 66.2739 98.8683C65.6004 98.8627 64.9254 98.8953 64.252 98.9149C64.1172 98.3088 63.9927 97.7017 63.8037 97.1167L61.2073 97.1241L60.842 98.8416L58.8535 98.9051C59.6305 95.7948 60.5925 92.7466 61.4071 89.648Z" fill="white"/>
<path d="M62.5523 92.2842C62.7698 92.862 62.9588 93.5244 63.0885 94.1404C63.1558 94.4608 63.209 94.7732 63.0756 95.0627L62.6764 95.1115C62.4235 95.1091 62.1706 95.1003 61.9179 95.0851C61.8436 94.6937 62.3989 92.7627 62.5523 92.2842Z" fill="#142841"/>
<path d="M105.124 9.12402C107.5 9.29937 109.873 9.59042 112.243 9.85057L112.213 12.4736C111.418 12.4163 110.626 12.3607 109.835 12.239L109.852 17.6031L109.857 20.7666C109.088 20.7025 108.324 20.6326 107.558 20.5158L107.572 12.0379C106.754 11.9171 105.933 11.8318 105.11 11.7818L105.124 9.12402Z" fill="white"/>
<path d="M71.7982 89.6523L73.7295 89.6702L73.7313 91.7491C73.7433 93.4862 74.0649 96.5183 73.0041 97.8959C72.429 98.6429 71.5716 98.9977 70.7463 99.0318C69.8585 99.0687 68.8827 98.7429 68.249 97.9496C67.1715 96.6007 67.5344 91.525 67.532 89.6611L69.3825 89.6632C69.4026 91.1638 69.0482 95.4647 69.7798 96.5044C69.9676 96.7712 70.2223 96.9208 70.5098 96.9408C70.8338 96.9634 71.1315 96.8468 71.359 96.5583C72.147 95.5582 71.8139 91.1129 71.7982 89.6523Z" fill="white"/>
<path d="M54.8278 8.86523C55.0214 9.27645 54.8965 16.3214 54.8958 17.5816C55.9813 17.4493 57.0735 17.3671 58.1614 17.2669C58.139 18.2057 58.1499 19.1468 58.1499 20.086C57.5394 20.0939 56.9293 20.1155 56.3196 20.1507L52.5856 20.4492L52.5669 9.05486C53.3231 9.0425 54.0751 8.94769 54.8278 8.86523Z" fill="white"/>
<path d="M77.5357 89.588C78.587 89.4859 79.4951 89.6325 80.4143 90.3026C80.7283 90.5314 80.8678 90.6899 80.9575 91.1259C80.7633 91.7976 80.0894 92.0548 79.5964 92.3736C79.4532 92.2095 79.3088 92.0393 79.151 91.8959C78.8634 91.634 78.5136 91.5509 78.1637 91.6276C77.9226 91.6803 77.6872 91.7944 77.553 92.0586C77.4762 92.2097 77.5238 92.2979 77.5474 92.4613C78.0091 93.1453 79.2383 93.197 79.9011 93.5543C80.4737 93.8633 80.9843 94.481 81.1826 95.2126C81.3683 95.898 81.2829 96.6742 80.9964 97.3004C80.562 98.2492 79.913 98.6593 79.0874 98.9316C78.3527 98.9955 77.6304 99.052 76.9246 98.7228C76.1584 98.3653 75.7543 97.7063 75.4443 96.8112C75.9341 96.4784 76.4362 96.1737 76.9358 95.8631C77.0473 96.0227 77.1599 96.1846 77.2841 96.3301C77.5802 96.677 77.9672 96.8994 78.3828 96.8815C78.6888 96.8683 78.8765 96.7539 79.0937 96.4912C79.1647 96.2296 79.2236 96.0941 79.0958 95.8301C78.7538 95.124 77.6549 95.1219 77.0823 94.8236C76.4738 94.5067 75.9484 93.9613 75.7264 93.1838C75.5374 92.5225 75.572 91.7452 75.8327 91.1195C76.1883 90.2666 76.82 89.8696 77.5357 89.588Z" fill="white"/>
<path d="M46.6625 9.82129L46.7953 9.82172C46.992 10.1543 46.8943 17.3967 46.8971 18.3359C47.9614 18.1755 49.04 18.1212 50.108 17.9927C50.1011 18.9014 50.1146 19.8114 50.1195 20.7203C49.3862 20.7335 48.6583 20.8036 47.9273 20.8728C46.8223 21.0005 45.7171 21.1217 44.6164 21.2996C44.6375 17.5785 44.6192 13.8578 44.5615 10.1375C45.2585 10.002 45.9612 9.91589 46.6625 9.82129Z" fill="white"/>
<path d="M82.4009 89.6572C84.3378 89.705 86.2789 89.6689 88.2162 89.6655C88.1984 90.375 88.2148 91.0858 88.2229 91.7953C87.5903 91.7865 86.9579 91.7678 86.3256 91.7391L86.3249 96.2234L86.3295 98.8466C85.688 98.8287 85.0435 98.8566 84.4018 98.869L84.407 91.758L82.4038 91.8008L82.4009 89.6572Z" fill="white"/>
<path d="M41.7613 10.4619L41.8581 10.5307C42.0753 11.2769 41.8429 19.6464 41.9812 21.5606C41.2822 21.646 40.5839 21.7591 39.886 21.8593C39.7374 21.8369 39.8194 21.8691 39.6589 21.7093C39.5869 20.4556 39.6441 19.1589 39.6451 17.9012C39.649 15.5236 39.6414 13.1459 39.6226 10.7683L41.7613 10.4619Z" fill="white"/>
<path d="M39.9239 89.8202C40.0932 89.8008 40.3117 89.7548 40.4778 89.8015C41.067 89.9668 42.4265 92.919 42.7162 93.6387C40.2572 93.4821 37.8761 92.9378 35.458 92.4151C34.1287 92.1051 32.8025 91.5435 31.4521 91.4129C33.8152 90.6755 37.4721 90.1437 39.9239 89.8202Z" fill="white" fill-opacity="0.05"/>
<path d="M119.372 89.751C120.463 89.9542 121.58 90.0205 122.678 90.1799C124.553 90.4534 126.409 90.8633 128.244 91.4095C127.144 91.5548 126.082 91.9197 125.011 92.2455C122.766 92.8508 119.572 93.6447 117.286 93.6223C118.068 92.3898 118.662 91.0419 119.372 89.751Z" fill="white" fill-opacity="0.05"/>
<path d="M89.8939 89.6523L91.8476 89.6538C91.8 92.713 91.8415 95.7822 91.8411 98.8422L89.8867 98.8581C89.9362 95.7924 89.8981 92.719 89.8939 89.6523Z" fill="white"/>
</svg>
