<svg width="272" height="123" viewBox="0 0 272 123" fill="none" xmlns="http://www.w3.org/2000/svg">
<path fill-rule="evenodd" clip-rule="evenodd" d="M195.865 19.362C199.866 19.6644 203.878 20.2125 207.864 20.6782C211.103 21.0565 214.481 21.3087 217.658 22.0341C218.212 22.1584 218.756 22.3161 219.291 22.5075C219.826 22.6989 220.346 22.9223 220.854 23.1776C222.803 24.1774 224.467 26.0641 225.111 28.1632C226.238 31.8285 226.073 46.5698 225.539 50.723C225.352 52.1756 225.04 53.6783 224.344 54.9798C223.542 56.4792 222.43 57.2394 220.851 57.7379C221.319 60.3315 222.12 62.9145 222.726 65.4856C224.088 71.2707 225.136 76.9498 227.741 82.3347C223.739 81.6917 219.712 81.0675 215.738 80.2704L214.953 77.0378C213.504 70.7779 212.266 64.4719 210.831 58.209C209.642 58.0214 208.472 57.8814 207.271 57.7994C207.323 64.2534 206.681 73.6401 208.099 79.6623C204.072 78.9937 199.998 78.6482 195.979 77.9409C197.05 73.9704 196.618 69.1895 196.613 65.0943L196.59 51.0696L196.536 32.614C196.517 29.4378 196.604 26.211 196.425 23.0421C196.354 21.7737 196.164 20.5957 195.865 19.362ZM207.332 30.0641C207.28 36.2007 207.627 42.4561 207.28 48.573C209.464 48.7422 212.311 49.3532 214.174 47.9527C214.489 47.478 214.756 47.0307 214.893 46.472C215.445 44.2248 215.47 36.4502 215.02 34.1061C214.828 33.1035 214.449 31.8605 213.555 31.2586C211.984 30.2001 209.197 30.2298 207.332 30.0641Z" fill="#142841"/>
<path d="M128.371 16.4686C132.485 16.291 136.648 16.4258 140.767 16.4405C143.822 26.7067 147.152 36.9636 149.88 47.3175C150.066 42.6068 149.895 37.807 149.896 33.0879C149.896 28.8025 150.131 24.3483 149.717 20.0873C149.601 18.883 149.359 17.8351 148.958 16.6947C152.806 16.8282 156.655 16.9102 160.496 17.1966C159.681 21.3678 159.906 25.6285 159.918 29.857L159.943 44.1457L159.946 61.3363C159.949 64.7611 159.844 68.2675 160.08 71.6817C160.171 72.9991 160.58 74.2647 160.788 75.5643C156.962 75.3469 153.12 75.2613 149.291 75.1296C147.601 68.9298 145.392 62.8448 143.439 56.7229L140.668 47.9254C140.247 46.5732 139.924 45.187 139.422 43.8627C139.707 46.5973 139.595 49.3933 139.592 52.1401L139.579 64.8114C139.577 68.2143 139.539 71.5169 140.159 74.8816C136.25 74.6634 132.291 74.7738 128.377 74.7856C128.892 73.2571 129.147 71.7523 129.238 70.1419C129.398 67.2968 129.285 64.4008 129.286 61.548V29.7863C129.285 26.8487 129.395 23.8702 129.219 20.9391C129.125 19.3765 128.948 17.9321 128.371 16.4686Z" fill="#142841"/>
<path d="M240.156 23.1779C240.607 23.1295 241.06 23.0964 241.513 23.0785C246.431 22.8983 254.686 24.3365 258.327 27.7635C261.841 31.0707 261.85 35.5365 261.88 40.0224C261.878 42.2593 261.91 44.4957 261.973 46.7316C258.389 46.1034 254.799 45.506 251.205 44.9394C251.117 42.2614 251.887 36.8809 249.96 34.8085C249.131 33.9161 247.91 33.5258 246.712 33.5195C245.89 33.5155 245.059 33.801 244.474 34.3923C243.204 35.6747 243.146 37.86 243.164 39.5605C243.179 41.0718 243.314 42.5969 243.976 43.9797C245.635 47.4439 253.099 52.77 256.119 55.7601C261.922 61.504 262.075 65.1877 262.104 72.9345C262.119 76.9547 262.569 83.0394 259.46 86.0658C257.282 88.186 254.751 88.2442 251.912 88.1719C246.879 87.7044 240.552 86.5446 236.598 83.1351C230.371 77.7649 232.702 69.4259 232.131 62.2148C235.739 63.0516 239.445 63.5591 243.019 64.5185C242.942 67.3069 242.678 70.2883 243.006 73.0549C243.166 74.4105 243.649 75.7511 244.774 76.5966C245.717 77.3056 247.125 77.6567 248.29 77.4704C249.128 77.3365 249.828 76.8806 250.295 76.1726C251.21 74.7864 251.079 72.8707 251.067 71.2755C251.054 69.6357 251.152 67.6781 250.553 66.1283C249.824 64.244 248.073 62.6895 246.612 61.3633C241.592 56.8055 233.958 51.9119 232.65 44.8225C232.055 41.5994 232.052 33.1612 232.738 29.9809C233.016 28.6954 233.531 27.4336 234.296 26.36C235.754 24.3137 237.785 23.5566 240.156 23.1779Z" fill="#142841"/>
<path fill-rule="evenodd" clip-rule="evenodd" d="M112.808 16.6315C114.1 16.5396 115.415 16.5771 116.711 16.5703C116.313 18.03 116.187 19.3649 116.253 20.8766C116.391 24.0268 116.919 27.1965 117.342 30.3192C117.995 35.2788 118.696 40.2316 119.446 45.1774C120.208 50.5868 121.018 55.9893 121.875 61.3845C122.595 65.8753 123.095 70.6788 124.903 74.8794C120.751 74.8084 116.591 75.01 112.439 75.0753C112.887 71.5849 112.28 68.4405 111.731 65.0082C110.394 65.0382 103.721 65.0316 103.05 65.5801L103.014 66.1542C102.653 69.3301 102.23 72.2193 103.156 75.3382C98.891 75.4042 94.5823 75.7114 90.3255 75.995C92.0457 71.3087 92.5613 66.2729 93.2764 61.3546L95.6031 45.2444L97.6711 30.8145C98.0986 27.8634 98.6377 24.879 98.8781 21.9073C99.0078 20.3025 98.9099 18.7977 98.6633 17.2091C103.36 17.1553 108.115 16.876 112.808 16.6315ZM107.637 29.7797C106.345 38.5904 105.458 47.488 104.047 56.2742C105.193 56.1913 106.329 56.1204 107.479 56.1207L111.071 56.0871C110.611 53.3293 108.086 30.2619 107.809 29.8846L107.637 29.7797Z" fill="#142841"/>
<path d="M18.5901 23.508C19.3599 23.4136 20.1985 23.4233 20.9748 23.423C23.4332 23.422 25.9204 23.973 27.6925 25.8077C30.7029 28.9251 30.3623 33.87 30.3623 37.8711L30.3498 44.772C26.733 45.308 23.0251 46.0263 19.4637 46.8571C19.6612 44.3833 20.1322 36.6165 18.6561 34.6736C18.1097 33.9544 17.2618 33.6795 16.3942 33.592C15.2 33.4713 13.9595 33.698 13.0297 34.4982C11.8649 35.5005 11.4633 37.0865 11.3389 38.5581C11.1013 41.3616 11.3111 44.3007 11.317 47.1186C11.2974 52.4488 11.3076 57.7791 11.3476 63.1093C11.3801 66.7655 10.9854 70.8886 11.3101 74.467C11.3961 75.4126 11.6142 76.3855 12.274 77.1063C12.8628 77.7492 13.6701 78.02 14.5249 78.0484C15.8123 78.0913 17.285 77.7282 18.2204 76.7963C20.3369 74.6871 19.5896 67.7584 19.5602 64.8136C22.1968 64.4437 24.8128 63.8642 27.4241 63.3442L30.4673 62.73C30.1657 68.6931 31.5709 76.9818 27.8304 81.8888C24.3165 86.4985 16.5245 87.8678 11.0404 88.5689C8.37412 88.9098 5.3081 88.9129 3.11407 87.1205C1.28027 85.622 0.506668 83.2732 0.259449 80.9939C-0.0765006 77.8968 0.0700183 74.6749 0.0693619 71.5603L0.0364821 44.2316C0.0345131 41.4939 -0.133444 38.6307 0.268295 35.9198C0.608089 33.6273 1.40572 31.4136 2.87722 29.6002C6.52888 25.1006 13.1491 24.0518 18.5901 23.508Z" fill="#142841"/>
<path d="M166.214 17.3376C168.29 17.6016 170.45 17.5187 172.544 17.6488C178.651 18.0281 184.903 18.3039 190.967 19.0929C190.553 22.6321 190.845 26.4509 190.869 30.0187C187.036 28.3025 181.716 28.4645 177.576 28.2625C177.66 32.7833 177.72 37.3595 177.584 41.8779C181.217 41.8966 184.727 42.6031 188.371 42.1402C188.346 45.7158 188.209 49.356 188.507 52.9216C184.928 52.2786 181.227 52.2205 177.607 51.8956C177.548 56.3357 177.632 60.7884 177.638 65.2301C177.614 65.5691 177.618 65.8209 177.699 66.1517C179.041 66.6514 186.489 66.9091 188.23 66.8615C189.22 66.8347 190.174 66.6905 191.147 66.5207L191.157 77.8458C187.723 77.2739 184.162 77.1294 180.69 76.8542C175.966 76.4799 171.218 76.0262 166.479 75.9167C167.114 72.4975 166.929 68.8967 166.927 65.4312L166.899 33.1179C166.897 29.3176 167.002 25.4825 166.806 21.6877C166.728 20.1949 166.551 18.7942 166.214 17.3376Z" fill="#142841"/>
<path d="M85.8783 17.753C86.0871 17.7258 86.2971 17.6949 86.5071 17.6805C86.8466 17.6577 87.2032 17.5717 87.4673 17.7943C87.3954 21.6 87.4123 25.4053 87.5179 29.2101C83.5077 27.897 78.7108 28.5437 74.5762 29.1176L74.5847 42.7298C77.9267 42.1435 81.3702 42.1488 84.7235 41.5669C84.4903 45.0895 84.5128 48.7214 84.771 52.2418C81.3493 52.1171 77.9904 52.4926 74.5818 52.7018L74.5753 67.1991C78.9496 66.5974 83.2223 66.6175 87.5713 65.6537C87.5253 68.9269 87.5417 72.1998 87.6207 75.4722L87.6388 76.0454C87.5401 76.1226 87.4619 76.2395 87.3426 76.2777C86.8525 76.4334 81.9616 76.6142 80.8386 76.7067C74.982 77.2154 69.1322 77.7932 63.2891 78.4401C63.727 76.6626 63.9545 74.873 64.0477 73.0449C64.2077 69.9103 64.1049 66.726 64.1018 63.5854L64.0802 32.9038C64.0693 28.8439 64.4534 23.5948 63.3932 19.7187C65.9908 19.6471 68.6417 19.2775 71.2324 19.0298C76.1205 18.5623 80.978 18.098 85.8783 17.753Z" fill="#142841"/>
<path d="M46.7115 21.3134C47.1022 21.2424 46.9162 21.2174 47.27 21.3825C47.4266 22.2938 47.029 23.5137 46.9553 24.4652C46.8267 26.0505 46.7625 27.6383 46.7627 29.2287L46.7706 70.0087C50.922 69.2059 55.1426 68.7659 59.2794 67.8866L59.2719 78.7489C55.6117 79.1354 51.9668 79.7537 48.3295 80.314C43.9586 80.9904 39.5562 81.6721 35.2222 82.5543C35.5279 81.7606 35.7714 80.9484 35.9529 80.1176C36.1346 79.2869 36.2521 78.447 36.3055 77.5981C36.5352 74.4285 36.4558 71.2301 36.4574 68.0539L36.457 36.8883C36.4558 32.3255 36.8615 27.4153 35.7385 22.9702C39.4105 22.5933 43.0666 21.8988 46.7115 21.3134Z" fill="#142841"/>
<path d="M59.771 111.982C60.0735 111.953 60.4642 111.886 60.7611 111.954C61.8143 112.197 64.2443 116.53 64.7622 117.587C60.3667 117.357 56.1105 116.558 51.7881 115.79C49.4118 115.335 47.0412 114.511 44.6274 114.319C48.8514 113.237 55.3882 112.456 59.771 111.982Z" fill="#C40017"/>
<path d="M201.788 111.88C203.737 112.179 205.735 112.276 207.696 112.51C211.049 112.911 214.366 113.513 217.647 114.315C215.681 114.528 213.781 115.064 211.867 115.542C207.855 116.43 202.144 117.596 198.058 117.563C199.456 115.754 200.518 113.775 201.788 111.88Z" fill="#C40017"/>
<path d="M100.254 121.771H97.0762L101.486 111.972H105.126L109.535 121.771H106.26L105.518 119.937H101.024L100.254 121.771ZM103.278 114.533L101.962 117.697H104.622L103.334 114.533H103.278Z" fill="#142841"/>
<path d="M117.231 122.051C116.158 122.051 115.211 121.841 114.39 121.421C113.578 120.992 112.948 120.408 112.5 119.671C112.061 118.924 111.842 118.085 111.842 117.151V111.972H114.852V117.151C114.852 117.861 115.066 118.434 115.496 118.873C115.925 119.312 116.503 119.531 117.231 119.531C117.959 119.531 118.538 119.312 118.967 118.873C119.397 118.434 119.611 117.861 119.611 117.151V111.972H122.621V117.151C122.621 118.085 122.397 118.924 121.949 119.671C121.51 120.408 120.881 120.992 120.059 121.421C119.247 121.841 118.305 122.051 117.231 122.051Z" fill="#142841"/>
<path d="M130.246 122.051C129.416 122.051 128.674 121.953 128.02 121.757C127.367 121.561 126.835 121.337 126.424 121.085C126.023 120.833 125.734 120.604 125.556 120.399L127.096 118.551C127.33 118.784 127.717 119.032 128.258 119.293C128.8 119.545 129.392 119.671 130.036 119.671C130.512 119.671 130.876 119.596 131.128 119.447C131.38 119.288 131.506 119.106 131.506 118.901C131.506 118.677 131.357 118.495 131.058 118.355C130.759 118.215 130.293 118.057 129.658 117.879C128.893 117.665 128.258 117.45 127.754 117.235C127.26 117.021 126.826 116.708 126.452 116.297C126.088 115.887 125.906 115.355 125.906 114.701C125.906 114.095 126.084 113.563 126.438 113.106C126.802 112.648 127.306 112.298 127.95 112.056C128.594 111.813 129.336 111.692 130.176 111.692C131.072 111.692 131.907 111.836 132.682 112.126C133.457 112.406 134.045 112.718 134.446 113.064L132.906 114.911C132.822 114.827 132.654 114.72 132.402 114.589C132.15 114.449 131.851 114.328 131.506 114.225C131.161 114.123 130.806 114.071 130.442 114.071C130.031 114.071 129.709 114.132 129.476 114.253C129.243 114.365 129.126 114.515 129.126 114.701C129.126 114.897 129.262 115.061 129.532 115.191C129.812 115.313 130.255 115.462 130.862 115.639C131.637 115.854 132.281 116.073 132.794 116.297C133.317 116.512 133.769 116.834 134.152 117.263C134.534 117.683 134.726 118.229 134.726 118.901C134.726 119.536 134.539 120.091 134.166 120.567C133.802 121.043 133.279 121.412 132.598 121.673C131.926 121.925 131.142 122.051 130.246 122.051Z" fill="#142841"/>
<path d="M143.126 121.771H140.117V114.561H136.757V111.972H146.486V114.561H143.126V121.771Z" fill="#142841"/>
<path d="M152.507 121.771H149.497V111.972H152.507V121.771Z" fill="#142841"/>
<path d="M159.43 121.771H156.42V111.972H159.08L164.358 117.431H164.4V111.972H167.41V121.771H164.75L159.472 116.311H159.43V121.771Z" fill="#142841"/>
<path d="M125.201 80.7448C137.144 80.5758 149.078 80.8429 161.001 81.5456C182.85 82.7524 204.686 85.1878 226.005 90.2556C224.414 93.4783 222.231 96.4462 220.732 99.6999C221.368 103.723 222.033 107.74 222.725 111.754C194.958 105.751 166.287 103.296 137.912 102.908C110.537 102.724 82.8586 104.056 55.8608 108.836C50.8899 109.716 45.1772 110.479 40.3882 111.947C41.4079 107.898 41.7499 103.665 42.6665 99.5788C40.7444 96.4527 39.035 93.2222 37.0454 90.1276C40.9065 88.9753 44.9835 88.2924 48.9478 87.5857C55.2564 86.4608 61.523 85.5036 67.8882 84.7566C77.4 83.6014 86.9354 82.6892 96.4937 82.0202C106.052 81.3512 115.621 80.9262 125.201 80.7448ZM59.7983 91.7732L60.355 95.2829L55.3276 96.0749L54.77 92.5642L52.606 92.905L54.0396 101.939L56.2036 101.598L55.6245 97.946L60.6519 97.155L61.2319 100.807L63.395 100.467L61.9614 91.4323L59.7983 91.7732ZM204.548 98.0417L204.125 101.281L206.298 101.562L206.72 98.323L211.553 93.0192L209.107 92.7028L205.943 96.2722L205.891 96.2653L203.787 92.0144L201.237 91.6843L204.548 98.0417ZM186.429 99.1101L188.609 99.3288L188.924 96.2087L191.144 96.4304L192.917 99.7605L195.397 100.009L193.432 96.3581C194.091 96.1878 194.609 95.8847 194.987 95.4499C195.374 95.0073 195.599 94.4783 195.662 93.863C195.719 93.2912 195.624 92.7651 195.374 92.2849C195.123 91.8045 194.723 91.4052 194.175 91.0876C193.636 90.771 192.97 90.5732 192.178 90.4939L187.349 90.0095L186.429 99.1101ZM68.146 90.8093L69.2886 99.8845L71.4624 99.612L70.3198 90.5378L68.146 90.8093ZM76.0845 89.9118L77.0991 99.0026L84.4917 98.1833L84.2817 96.3005L79.0669 96.8776L78.2612 89.6706L76.0845 89.9118ZM172.88 90.573L176.151 90.8171L175.605 98.0485L177.803 98.2136L178.348 90.9821L181.619 91.2273L181.761 89.3376L173.023 88.6833L172.88 90.573ZM88.8022 88.7331L89.5962 97.8444L97.0063 97.2048L96.8423 95.3171L91.6147 95.7692L90.9849 88.5446L88.8022 88.7331ZM156.826 96.7995L159.014 96.8923L159.27 90.9138L159.323 90.9157L164.584 97.1286L166.617 97.2146L167.007 88.0769L164.818 87.9841L164.563 93.9499L164.511 93.947L159.248 87.7478L157.216 87.6618L156.826 96.7995ZM112.365 87.1101C111.229 87.1687 110.231 87.4332 109.372 87.905C108.52 88.3763 107.874 88.9903 107.431 89.7458C106.997 90.492 106.803 91.3 106.848 92.1696C106.893 93.0395 107.171 93.8285 107.68 94.5349C108.198 95.2321 108.906 95.7709 109.801 96.1521C110.706 96.5327 111.726 96.694 112.861 96.6355C113.865 96.5836 114.752 96.3678 115.52 95.988C116.288 95.5995 116.912 95.1397 117.392 94.6091L115.961 93.361C115.494 93.8038 115.004 94.1438 114.491 94.3796C113.986 94.6063 113.41 94.7359 112.763 94.7692C112.091 94.8039 111.477 94.7134 110.923 94.4978C110.377 94.273 109.94 93.9511 109.612 93.5319C109.283 93.1042 109.105 92.6119 109.076 92.0554C109.047 91.4987 109.173 90.9903 109.456 90.531C109.738 90.0716 110.14 89.7063 110.66 89.4353C111.188 89.155 111.789 88.9973 112.461 88.9626C113.09 88.9302 113.664 89.0056 114.181 89.1882C114.707 89.3617 115.229 89.6312 115.747 89.9968L117.028 88.6228C116.495 88.1531 115.837 87.772 115.051 87.4812C114.265 87.1816 113.369 87.0582 112.365 87.1101ZM140.566 92.0066C140.556 92.86 140.744 93.6286 141.13 94.3122C141.516 94.9871 142.07 95.5206 142.792 95.9118C143.522 96.2945 144.369 96.491 145.331 96.5017C146.292 96.5123 147.139 96.3339 147.869 95.9675C148.607 95.5925 149.177 95.0719 149.578 94.406C149.987 93.7311 150.198 92.9665 150.208 92.113L150.262 87.2136L148.058 87.1892L148.003 92.0886C147.998 92.5936 147.884 93.0409 147.661 93.4304C147.438 93.8112 147.124 94.1087 146.719 94.322C146.323 94.5354 145.867 94.6392 145.351 94.6335C144.835 94.6278 144.377 94.5139 143.977 94.2917C143.586 94.0696 143.283 93.7653 143.069 93.3796C142.855 92.9853 142.751 92.5351 142.756 92.03L142.811 87.1306L140.62 87.1062L140.566 92.0066ZM128.207 86.7761C127.07 86.8014 126.064 87.0367 125.191 87.4831C124.326 87.9293 123.662 88.5242 123.198 89.2663C122.742 89.9996 122.524 90.8018 122.543 91.6726C122.563 92.5433 122.817 93.3394 123.305 94.0603C123.802 94.7722 124.493 95.3318 125.376 95.739C126.269 96.146 127.285 96.3366 128.421 96.3112C129.558 96.2858 130.559 96.0504 131.423 95.6042C132.288 95.158 132.953 94.5682 133.417 93.8347C133.882 93.0924 134.104 92.2856 134.084 91.4148C134.065 90.5439 133.806 89.7528 133.309 89.0407C132.812 88.32 132.122 87.7556 131.238 87.3483C130.354 86.9411 129.343 86.7507 128.207 86.7761ZM191.956 92.3103C192.46 92.3609 192.846 92.5082 193.111 92.7536C193.386 92.9912 193.505 93.288 193.469 93.6433C193.433 93.9986 193.256 94.2697 192.938 94.4567C192.63 94.6358 192.224 94.7007 191.719 94.6501L189.109 94.3884L189.345 92.0485L191.956 92.3103ZM128.249 88.6306C128.922 88.6156 129.528 88.7288 130.067 88.9694C130.614 89.2011 131.046 89.5353 131.362 89.9724C131.678 90.4097 131.842 90.9072 131.855 91.4646C131.868 92.0219 131.726 92.5263 131.43 92.9773C131.134 93.4195 130.717 93.7732 130.181 94.0378C129.653 94.2935 129.052 94.428 128.379 94.4431C127.706 94.4581 127.095 94.3496 126.547 94.1179C126.009 93.8772 125.581 93.5424 125.265 93.114C124.949 92.6769 124.786 92.1798 124.773 91.6228C124.76 91.0655 124.902 90.561 125.198 90.1101C125.494 89.6591 125.906 89.3053 126.434 89.0495C126.97 88.785 127.575 88.6456 128.249 88.6306Z" fill="#C40017"/>
<path d="M98.2864 10.8476L95.2811 11.0125L94.8862 3.81382L91.5315 3.99785L91.3896 1.41193L101.104 0.878999L101.246 3.46492L97.8915 3.64896L98.2864 10.8476Z" fill="#142841"/>
<path d="M119.09 10.1248L109.923 10.3297L109.704 0.532832L118.731 0.331131L118.786 2.78034L112.768 2.91481L112.796 4.1744L117.415 4.07121L117.466 6.38046L112.848 6.48366L112.878 7.81323L119.036 7.67563L119.09 10.1248Z" fill="#142841"/>
<path d="M129.858 9.79928H126.373L130.222 4.68966L126.653 0L130.236 4.32755e-09L132.28 2.8138H132.322L134.366 9.31425e-09L137.852 1.35235e-08L134.282 4.68966L138.132 9.79928H134.548L132.238 6.57952H132.168L129.858 9.79928Z" fill="#142841"/>
<path d="M146.739 10.1424L143.562 10.0715L148.189 0.372997L151.828 0.454141L156.018 10.3493L152.743 10.2763L152.042 8.42632L147.55 8.32614L146.739 10.1424ZM149.924 2.97412L148.537 6.10777L151.197 6.16707L149.98 2.97537L149.924 2.97412Z" fill="#142841"/>
<path d="M165.855 11.1971C165.025 11.1517 164.29 11.0132 163.648 10.7818C163.007 10.5503 162.488 10.2976 162.092 10.0235C161.705 9.7499 161.428 9.50576 161.262 9.29104L162.901 7.53024C163.121 7.77598 163.495 8.04412 164.021 8.33467C164.547 8.6159 165.132 8.77415 165.775 8.80939C166.25 8.83545 166.618 8.78082 166.878 8.64551C167.138 8.50089 167.274 8.32607 167.285 8.12106C167.297 7.89741 167.158 7.70753 166.868 7.5514C166.577 7.39527 166.12 7.21131 165.496 6.99952C164.744 6.7433 164.122 6.49424 163.63 6.25232C163.148 6.01092 162.732 5.67499 162.382 5.24453C162.041 4.81459 161.888 4.27346 161.924 3.62116C161.957 3.01545 162.163 2.49399 162.542 2.05679C162.931 1.62009 163.453 1.29823 164.109 1.09119C164.766 0.884155 165.513 0.803625 166.352 0.8496C167.246 0.898641 168.072 1.0888 168.83 1.42008C169.588 1.74204 170.158 2.0864 170.54 2.45315L168.901 4.21396C168.822 4.12549 168.66 4.00913 168.416 3.86488C168.172 3.71131 167.88 3.57382 167.541 3.45241C167.202 3.33101 166.851 3.26034 166.487 3.24042C166.077 3.21794 165.752 3.26089 165.513 3.36926C165.274 3.46831 165.149 3.61103 165.139 3.7974C165.128 3.99309 165.254 4.16357 165.517 4.30885C165.79 4.44532 166.225 4.61868 166.821 4.82894C167.582 5.08567 168.213 5.33991 168.714 5.59165C169.224 5.83459 169.658 6.18086 170.017 6.63046C170.376 7.07074 170.537 7.62636 170.5 8.2973C170.465 8.93097 170.249 9.47521 169.85 9.93003C169.46 10.3854 168.918 10.7248 168.224 10.9485C167.539 11.1633 166.749 11.2462 165.855 11.1971Z" fill="#142841"/>
<path d="M267.188 87.0651H266.435V85.2627H265.595V84.6152H268.028V85.2627H267.188V87.0651Z" fill="#C4C4C4"/>
<path d="M269.533 87.0651H268.78V84.6152H269.463L270.39 85.5742H270.401L271.328 84.6152H272V87.0651H271.248V85.5952H271.237L270.39 86.4701L269.543 85.5952H269.533V87.0651Z" fill="#C4C4C4"/>
</svg>
