<svg width="83" height="32" viewBox="0 0 83 32" fill="none" xmlns="http://www.w3.org/2000/svg">
<g clip-path="url(#clip0_4171_1375)">
<path d="M66.9393 18.8801L68.2896 18.5677C68.318 18.5611 68.3649 18.5503 68.4222 18.5317C68.7948 18.4314 69.1141 18.1901 69.3128 17.8587C69.5115 17.5272 69.5742 17.1315 69.4877 16.7549C69.4858 16.7466 69.4839 16.7387 69.482 16.7305C69.4377 16.55 69.36 16.3794 69.2529 16.2277C69.1016 16.0354 68.9144 15.8746 68.7017 15.7541C68.4512 15.611 68.1891 15.4895 67.9182 15.3908L66.4377 14.8496C65.6068 14.5402 64.7761 14.2387 63.9375 13.9446C63.3936 13.7508 62.9328 13.5807 62.5324 13.4567C62.4569 13.4334 62.3735 13.4101 62.3058 13.3866C61.8217 13.2381 61.4816 13.1765 61.1938 13.1744C61.0016 13.1674 60.8101 13.2024 60.6326 13.2769C60.4477 13.3568 60.2816 13.4748 60.1453 13.6234C60.0775 13.7006 60.0137 13.7813 59.9542 13.8651C59.8984 13.9506 59.8473 14.039 59.801 14.13C59.7499 14.2275 59.7061 14.3286 59.6698 14.4326C59.395 15.246 59.2582 16.0997 59.2649 16.9583C59.2698 17.7345 59.2906 18.7307 59.7167 19.4061C59.8193 19.5793 59.9571 19.7291 60.1211 19.8457C60.4246 20.0556 60.7313 20.0833 61.0504 20.1063C61.5272 20.1406 61.9892 20.0233 62.4497 19.9167L66.9356 18.8788L66.9393 18.8801Z" fill="black" fill-opacity="0.3"/>
<path d="M82.0034 11.7011C81.6348 10.9263 81.1391 10.219 80.5371 9.60838C80.4592 9.53092 80.3758 9.45919 80.2875 9.39386C80.206 9.3326 80.1213 9.27566 80.0338 9.22322C79.9438 9.17385 79.8513 9.1293 79.7566 9.08981C79.5693 9.01617 79.3686 8.98301 79.1677 8.9924C78.9754 9.00337 78.7879 9.05607 78.618 9.14692C78.3606 9.27508 78.0819 9.48113 77.7114 9.82615C77.6601 9.8771 77.5958 9.93453 77.538 9.98872C77.2323 10.2766 76.8921 10.6315 76.4873 11.0448C75.862 11.6777 75.2463 12.3139 74.6343 12.9571L73.5393 14.0942C73.3387 14.302 73.1561 14.5264 72.9935 14.7651C72.8549 14.9668 72.7568 15.1937 72.7048 15.433C72.6747 15.6165 72.6791 15.804 72.7178 15.9858C72.7197 15.9941 72.7215 16.0019 72.7234 16.0101C72.8099 16.3868 73.0389 16.715 73.3621 16.9257C73.6854 17.1364 74.0778 17.213 74.4565 17.1396C74.5165 17.1309 74.5631 17.1206 74.5914 17.1136L80.4296 15.7628C80.8897 15.6563 81.3566 15.5587 81.77 15.3184C82.0472 15.1574 82.3109 14.9978 82.4917 14.6759C82.5884 14.499 82.6469 14.3037 82.6635 14.1028C82.7531 13.3061 82.3376 12.4012 82.0034 11.7011Z" fill="black" fill-opacity="0.3"/>
<path d="M71.5541 14.1596C71.9771 13.6274 71.9761 12.8341 72.0139 12.1855C72.1412 10.0186 72.2754 7.85139 72.3816 5.68326C72.4223 4.86203 72.5106 4.05194 72.4618 3.22448C72.4216 2.54186 72.4166 1.75811 71.9863 1.19791C71.2266 0.210037 69.6066 0.291228 68.5013 0.444464C68.1626 0.491529 67.8235 0.554808 67.487 0.635695C67.1505 0.716582 66.8175 0.804923 66.4917 0.90941C65.4311 1.25732 63.9401 1.89593 63.6876 3.11973C63.5452 3.81158 63.8826 4.5193 64.1442 5.15069C64.4613 5.91605 64.8946 6.60548 65.2894 7.32594C66.3332 9.22798 67.3964 11.1181 68.4567 13.0103C68.7733 13.5752 69.1184 14.2905 69.731 14.5832C69.7715 14.6009 69.8128 14.6166 69.8549 14.6301C70.1296 14.7343 70.429 14.7543 70.7152 14.6878C70.7325 14.6838 70.7494 14.6799 70.7662 14.676C71.0305 14.604 71.2698 14.4601 71.4576 14.2602C71.4914 14.2284 71.5237 14.1949 71.5541 14.1596Z" fill="black" fill-opacity="0.3"/>
<path d="M71.0475 19.9609C70.8824 19.7282 70.648 19.5539 70.378 19.4628C70.108 19.3716 69.816 19.3685 69.5439 19.4536C69.48 19.4749 69.4177 19.5007 69.3575 19.531C69.2645 19.5785 69.1757 19.6339 69.0922 19.6967C68.8488 19.8772 68.644 20.1118 68.4574 20.347C68.4101 20.407 68.3669 20.4869 68.3106 20.5382L67.3715 21.8317C66.8392 22.5564 66.3144 23.2829 65.7939 24.021C65.4542 24.4974 65.1604 24.8998 64.9284 25.2558C64.8844 25.3229 64.8388 25.3978 64.7969 25.4574C64.5188 25.8883 64.3614 26.2028 64.2805 26.4829C64.2198 26.669 64.2005 26.8662 64.2242 27.0605C64.2501 27.263 64.3181 27.4576 64.4239 27.6319C64.4802 27.7194 64.5409 27.8039 64.6057 27.8853C64.673 27.9635 64.7446 28.038 64.8199 28.1085C64.9004 28.1853 64.9865 28.2562 65.0776 28.3203C65.7257 28.7719 66.4353 29.0964 67.1817 29.3471C67.8028 29.5536 68.4484 29.6771 69.1018 29.7146C69.213 29.7203 69.3244 29.7178 69.4352 29.7074C69.5379 29.6984 69.6401 29.684 69.7413 29.6644C69.8425 29.6407 69.9423 29.6117 70.0404 29.5774C70.2312 29.5059 70.4049 29.3951 70.5504 29.2521C70.6881 29.1141 70.7941 28.9476 70.8609 28.7642C70.9695 28.4933 71.0409 28.1493 71.0878 27.6385C71.0919 27.5659 71.1023 27.4788 71.1095 27.399C71.1465 26.9752 71.1635 26.4774 71.1908 25.8921C71.2367 24.992 71.2727 24.0958 71.3012 23.1971C71.3012 23.1971 71.3617 21.6 71.3615 21.5992C71.3753 21.2311 71.364 20.8233 71.2621 20.4568C71.2172 20.2812 71.1449 20.1138 71.0475 19.9609Z" fill="black" fill-opacity="0.3"/>
<path d="M81.6477 22.4615C81.4518 22.2463 81.174 22.0317 80.736 21.7665C80.6728 21.7311 80.5987 21.684 80.5303 21.643C80.1656 21.4233 79.7263 21.1922 79.2131 20.9131C78.4248 20.4797 77.6359 20.0571 76.8396 19.6381L75.4325 18.8908C75.3596 18.8695 75.2854 18.8167 75.2167 18.7835C74.9464 18.6541 74.6599 18.5332 74.3624 18.4778C74.2599 18.4581 74.1559 18.4473 74.0515 18.4455C73.9842 18.4447 73.9169 18.4488 73.8502 18.4578C73.5688 18.5014 73.3085 18.633 73.106 18.8335C72.9036 19.0342 72.7695 19.2937 72.7228 19.5751C72.7013 19.7541 72.7079 19.9353 72.7422 20.1123C72.811 20.4872 72.9781 20.8582 73.1511 21.183L73.9025 22.5932C74.3206 23.3886 74.7437 24.1793 75.1775 24.9676C75.4573 25.4818 75.6902 25.9217 75.9083 26.2865C75.9496 26.3551 75.9965 26.429 76.0319 26.4925C76.2974 26.9309 76.5107 27.2069 76.727 27.4049C76.8671 27.5404 77.035 27.6435 77.219 27.7071C77.4125 27.7713 77.6172 27.7941 77.82 27.7739C77.9231 27.7617 78.0255 27.744 78.1268 27.7208C78.2266 27.694 78.3248 27.662 78.4212 27.6249C78.5253 27.5856 78.6264 27.5389 78.7237 27.4849C79.2949 27.1643 79.8214 26.7694 80.2897 26.3108C80.8513 25.7574 81.3478 25.1539 81.7339 24.463C81.7876 24.3653 81.8341 24.2638 81.8731 24.1593C81.9094 24.0627 81.941 23.9642 81.9674 23.8643C81.9903 23.7628 82.0078 23.6602 82.0199 23.5568C82.0391 23.3539 82.0155 23.1492 81.9508 22.956C81.8871 22.7709 81.7837 22.6021 81.6477 22.4615Z" fill="black" fill-opacity="0.3"/>
<path fill-rule="evenodd" clip-rule="evenodd" d="M33.2025 8.74307C33.2025 7.58101 34.1479 6.63171 35.2889 6.63171C36.4135 6.63171 37.3263 7.58101 37.3752 8.75945V25.2411C37.3752 26.4032 36.4298 27.3524 35.2889 27.3524C34.1152 27.3524 33.2025 26.4032 33.2025 25.2411V8.74307ZM31.2625 18.9234C31.2463 19.2507 31.1648 19.8563 30.741 20.2982C30.2845 20.7728 29.6652 20.8875 29.3066 20.8875C27.8152 20.8956 26.3239 20.8998 24.8325 20.9038C23.3411 20.9079 21.8496 20.912 20.3582 20.9202C20.4886 21.3294 20.7493 21.9513 21.3361 22.5242C21.6947 22.8679 22.037 23.0643 22.1837 23.1461C22.363 23.2607 22.9824 23.588 23.7485 23.588C24.5634 23.588 25.2806 23.3261 25.9815 22.966L26.0401 22.9357C26.5271 22.6829 27.0298 22.4221 27.5626 22.3278C28.0841 22.2459 28.6383 22.3441 29.0458 22.7042C29.5348 23.1297 29.7304 23.7517 29.5511 24.39C29.3392 25.1101 28.7361 25.7321 28.1004 26.1085C27.7418 26.3213 27.3507 26.5013 26.9595 26.6487C26.4542 26.8287 25.9326 26.9596 25.411 27.0415C24.8894 27.1233 24.3515 27.156 23.8136 27.1397C23.5528 27.1397 23.2758 27.1397 22.9986 27.1069C22.7053 27.0742 22.4119 27.0088 22.1348 26.9433C21.6784 26.8451 21.2546 26.6977 20.8308 26.5013C20.4233 26.3213 20.0159 26.0921 19.641 25.8303C19.266 25.5684 18.9238 25.2575 18.5978 24.9301C18.2881 24.6028 17.9947 24.2427 17.7339 23.8499C16.8537 22.5078 16.4462 20.8547 16.5277 19.2507C16.5929 17.6795 17.1145 16.1082 18.0599 14.8316C18.1623 14.6717 18.2805 14.5357 18.3925 14.4069C18.4409 14.3512 18.4883 14.2968 18.5326 14.2424C19.7001 12.8131 21.2598 12.3608 21.9032 12.1742L21.9392 12.1638C23.7811 11.64 25.3132 11.9837 25.9326 12.1638C26.2423 12.2456 27.9864 12.7857 29.3392 14.2424C29.4044 14.3078 29.5837 14.5206 29.8119 14.8316C30.6689 16.0007 30.9645 17.0893 31.0646 17.458L31.067 17.4667C31.1648 17.8268 31.2625 18.3178 31.2625 18.9234ZM21.6947 16.2228C20.7493 16.9921 20.4886 17.9741 20.4233 18.2851H27.5299C27.4648 17.9905 27.1876 16.9921 26.2423 16.2228C25.2806 15.4535 24.27 15.4045 23.9604 15.4045C23.6507 15.4045 22.6401 15.4535 21.6947 16.2228ZM48.7193 11.8856C46.8612 11.8856 45.166 12.7203 43.9599 14.0788V14.0296C43.911 12.933 42.9982 12.0492 41.8898 12.0492C40.7325 12.0492 39.8035 12.9821 39.8035 14.1442V29.873C39.8035 31.0351 40.7325 31.968 41.8898 31.968C43.0471 31.968 43.9761 31.0351 43.9761 29.873V29.2674V24.9628C45.1823 26.305 46.8612 27.156 48.7356 27.156C52.4682 27.156 55.4999 23.768 55.4999 19.5454C55.4837 15.3226 52.4519 11.8856 48.7193 11.8856ZM47.8066 23.7354C45.6876 23.7354 43.9599 21.8858 43.9599 19.5781C43.9599 17.2539 45.6713 15.4045 47.8066 15.4045C49.9255 15.4045 51.6532 17.2539 51.6532 19.5781C51.637 21.8858 49.9255 23.7354 47.8066 23.7354ZM13.3983 20.6419L12.7137 22.1477C12.404 22.8024 12.0943 23.4735 11.8009 24.1445C11.7073 24.3504 11.613 24.5606 11.5174 24.7736C10.2146 27.6764 8.66852 31.1215 5.29741 31.8534C3.66745 32.2135 1.20621 31.7225 0.293438 30.1839C-0.619338 28.629 0.733527 26.845 2.47758 27.2542C2.75266 27.3156 3.02315 27.4507 3.29594 27.5868C3.75052 27.8138 4.21147 28.044 4.71062 27.9417C5.18331 27.8598 5.47671 27.5161 5.85159 27.0742C6.37318 26.4686 6.60137 25.8303 6.69917 25.4539C6.69102 25.4375 6.68287 25.417 6.67472 25.3965C6.66657 25.3761 6.65842 25.3556 6.65027 25.3393C6.22597 24.5466 5.85543 23.8379 5.54588 23.2459C5.3441 22.86 5.16825 22.5236 5.02031 22.2459C4.71678 21.6697 4.48749 21.2341 4.30919 20.8954C3.78853 19.9063 3.70255 19.7429 3.47186 19.3162C2.96657 18.3506 2.42868 17.4176 1.8745 16.4847C1.27141 15.4699 0.652029 14.3406 1.15732 13.1458C1.56481 12.1801 2.60798 11.6891 3.60225 12.0001C4.65134 12.3189 5.11593 13.3186 5.55041 14.2535C5.62896 14.4225 5.70653 14.5893 5.7864 14.7498C6.48728 16.141 7.17186 17.5322 7.85644 18.9234C7.91671 19.0617 8.00881 19.2503 8.12074 19.4794C8.22071 19.6841 8.33652 19.9211 8.45953 20.1836C8.52385 20.32 8.58502 20.4469 8.64038 20.5616C8.71118 20.7085 8.77235 20.8354 8.81809 20.9365C9.13598 20.1427 9.45785 19.353 9.77981 18.5633C10.1017 17.7736 10.4236 16.9839 10.7414 16.1901C10.7503 16.1457 10.8262 15.9764 10.9405 15.7212C11.0371 15.5054 11.1613 15.2283 11.2956 14.9134C11.3411 14.8059 11.3869 14.6942 11.4337 14.5801C11.857 13.5476 12.366 12.3063 13.4961 11.9673C14.3111 11.7218 15.2239 12.0492 15.6965 12.7366C15.9411 13.0803 16.0388 13.4731 16.0551 13.8659C16.0682 14.7346 15.6492 15.6668 15.2896 16.4667C15.202 16.6615 15.118 16.8485 15.0446 17.0248C15.0412 17.0315 15.027 17.0636 15.0013 17.1211C14.9019 17.3448 14.6311 17.9537 14.1644 18.9561C13.996 19.3155 13.8344 19.6749 13.6707 20.0387C13.581 20.2382 13.4907 20.439 13.3983 20.6419Z" fill="black" fill-opacity="0.3"/>
<path d="M57.0815 25.779H57.2326C57.3071 25.779 57.3669 25.7598 57.4116 25.7215C57.4573 25.6823 57.4802 25.6328 57.4802 25.5731C57.4802 25.503 57.4601 25.4531 57.42 25.4231C57.3799 25.3924 57.3165 25.3769 57.2298 25.3769H57.0815V25.779ZM57.6886 25.5674C57.6886 25.6422 57.6685 25.7085 57.6284 25.7664C57.5893 25.8234 57.5338 25.8658 57.462 25.8938L57.7949 26.4472H57.5599L57.2704 25.9513H57.0815V26.4472H56.8745V25.1991H57.2396C57.3944 25.1991 57.5077 25.2294 57.5795 25.2901C57.6523 25.3508 57.6886 25.4433 57.6886 25.5674ZM56.21 25.8224C56.21 25.6357 56.2566 25.4605 56.3499 25.2971C56.4431 25.1336 56.5713 25.0048 56.7346 24.9105C56.8978 24.8161 57.0736 24.769 57.2619 24.769C57.4485 24.769 57.6233 24.8157 57.7865 24.9091C57.9497 25.0025 58.0785 25.1309 58.1726 25.2943C58.2668 25.4577 58.3139 25.6338 58.3139 25.8224C58.3139 26.0064 58.2687 26.1792 58.1782 26.3408C58.0878 26.5023 57.9609 26.6317 57.7977 26.7287C57.6345 26.8259 57.456 26.8744 57.2619 26.8744C57.0689 26.8744 56.8908 26.8263 56.7275 26.7302C56.5644 26.6331 56.437 26.5037 56.3457 26.3422C56.2552 26.1806 56.21 26.0074 56.21 25.8224ZM56.3569 25.8224C56.3569 25.984 56.3975 26.1353 56.4785 26.2763C56.5597 26.4164 56.6702 26.527 56.8101 26.6083C56.9509 26.6886 57.1015 26.7287 57.2619 26.7287C57.4242 26.7287 57.5748 26.6882 57.7138 26.6069C57.8527 26.5256 57.9628 26.4159 58.0439 26.2777C58.126 26.1385 58.167 25.9868 58.167 25.8224C58.167 25.6599 58.1264 25.5091 58.0453 25.3699C57.9642 25.2308 57.8541 25.1206 57.7152 25.0394C57.5771 24.9572 57.4261 24.916 57.2619 24.916C57.0996 24.916 56.9491 24.9567 56.8101 25.038C56.6712 25.1192 56.5606 25.2294 56.4785 25.3685C56.3975 25.5068 56.3569 25.658 56.3569 25.8224Z" fill="black" fill-opacity="0.3"/>
</g>
<defs>
<clipPath id="clip0_4171_1375">
<rect width="83" height="32" fill="white"/>
</clipPath>
</defs>
</svg>
