<svg width="128" height="32" viewBox="0 0 128 32" fill="none" xmlns="http://www.w3.org/2000/svg">
<path d="M33.6187 11.2H46.5681V13.65H41.4879V27.3H38.6988V13.6H33.6187V11.2ZM46.0202 15.6H48.4109V17.85H48.4607C48.5603 17.55 48.7097 17.25 48.9089 16.95C49.1081 16.65 49.407 16.35 49.7058 16.15C50.0046 15.9 50.3533 15.7 50.7019 15.55C51.0506 15.4 51.449 15.3 51.8474 15.3C52.1463 15.3 52.3455 15.3 52.4451 15.3C52.5447 15.3 52.6941 15.35 52.7937 15.35V17.8C52.5945 17.75 52.4451 17.75 52.2459 17.7C52.0467 17.7 51.8973 17.65 51.698 17.65C51.2498 17.65 50.8513 17.75 50.5027 17.9C50.1043 18.05 49.8054 18.35 49.5066 18.65C49.2078 19 49.0085 19.4 48.8093 19.9C48.6599 20.4 48.5603 20.95 48.5603 21.6V27.15H46.0202V15.6ZM64.5478 27.25H62.0576V25.65H62.0078C61.7089 26.25 61.2109 26.7 60.6132 27.05C60.0155 27.4 59.3681 27.6 58.7206 27.6C57.1766 27.6 56.0809 27.25 55.4334 26.45C54.7362 25.7 54.4373 24.55 54.4373 23V15.6H56.9774V22.75C56.9774 23.75 57.1766 24.5 57.5751 24.9C57.9735 25.3 58.5214 25.55 59.2187 25.55C59.7665 25.55 60.2148 25.45 60.5634 25.3C60.912 25.15 61.2109 24.9 61.4101 24.65C61.6591 24.4 61.8085 24.05 61.9081 23.65C62.0078 23.25 62.0576 22.85 62.0576 22.4V15.65H64.5976V27.25H64.5478ZM68.9307 23.5C69.0303 24.25 69.2794 24.75 69.7774 25.1C70.2755 25.4 70.8731 25.55 71.5704 25.55C71.8194 25.55 72.0685 25.55 72.3673 25.5C72.6661 25.45 72.965 25.4 73.214 25.3C73.463 25.2 73.712 25.05 73.8615 24.85C74.0109 24.65 74.1105 24.4 74.1105 24.05C74.1105 23.7 73.9611 23.45 73.7618 23.25C73.5128 23.05 73.2638 22.9 72.9151 22.75C72.5665 22.65 72.1681 22.5 71.7198 22.4C71.2716 22.3 70.8233 22.2 70.3751 22.1C69.877 22 69.4288 21.85 68.9805 21.7C68.5323 21.55 68.1338 21.35 67.7852 21.1C67.4366 20.85 67.1377 20.5 66.9385 20.1C66.7393 19.7 66.6397 19.2 66.6397 18.65C66.6397 18 66.7891 17.5 67.0879 17.05C67.3867 16.6 67.7852 16.3 68.2334 16C68.7315 15.75 69.2295 15.55 69.8272 15.45C70.4249 15.35 70.9727 15.3 71.4708 15.3C72.0685 15.3 72.6661 15.35 73.1642 15.5C73.712 15.6 74.2101 15.85 74.6583 16.1C75.1066 16.4 75.4552 16.75 75.7541 17.2C76.0529 17.65 76.2521 18.2 76.3019 18.85H73.6124C73.5128 18.25 73.214 17.8 72.7657 17.6C72.3175 17.4 71.8194 17.3 71.2716 17.3C71.0724 17.3 70.8731 17.3 70.6241 17.35C70.3751 17.4 70.126 17.45 69.9268 17.5C69.7276 17.6 69.5284 17.7 69.379 17.85C69.2295 18 69.1299 18.2 69.1299 18.45C69.1299 18.75 69.2295 19 69.4786 19.2C69.6778 19.4 69.9766 19.55 70.3253 19.7C70.6739 19.8 71.0724 19.95 71.5206 20.05C71.9688 20.15 72.4171 20.25 72.9151 20.35C73.3634 20.45 73.8117 20.6 74.2599 20.75C74.7081 20.9 75.1066 21.1 75.4552 21.35C75.8039 21.6 76.1027 21.95 76.3019 22.3C76.5011 22.65 76.6506 23.15 76.6506 23.75C76.6506 24.45 76.5011 25 76.1525 25.5C75.8537 26 75.4054 26.35 74.9572 26.65C74.4591 26.95 73.9113 27.15 73.2638 27.3C72.6661 27.45 72.0685 27.5 71.421 27.5C70.6739 27.5 70.0264 27.4 69.379 27.25C68.7813 27.1 68.2334 26.85 67.7852 26.5C67.3369 26.15 66.9883 25.75 66.6895 25.25C66.4404 24.75 66.291 24.15 66.291 23.45L68.9307 23.5ZM77.3478 15.6H79.2902V12.1H81.8303V15.6H84.1214V17.5H81.8303V23.7C81.8303 23.95 81.8303 24.2 81.8801 24.4C81.8801 24.6 81.9797 24.75 82.0295 24.9C82.1292 25.05 82.2288 25.15 82.3782 25.2C82.5276 25.25 82.7766 25.3 83.0755 25.3C83.2747 25.3 83.4241 25.3 83.6233 25.3C83.8225 25.3 83.972 25.25 84.1712 25.2V27.2C83.8723 27.25 83.6233 27.25 83.3245 27.3C83.0755 27.35 82.7766 27.35 82.4778 27.35C81.7805 27.35 81.2825 27.3 80.8342 27.15C80.4358 27.05 80.0871 26.85 79.8879 26.6C79.6389 26.35 79.4895 26.05 79.3899 25.65C79.2902 25.3 79.2404 24.85 79.2404 24.35V17.55H77.298L77.3478 15.6ZM85.9642 15.6H88.4046V17.2H88.4545C88.8031 16.5 89.3011 16.05 89.9486 15.75C90.5961 15.45 91.2934 15.3 92.0404 15.3C92.9369 15.3 93.7338 15.45 94.4311 15.8C95.1284 16.1 95.6762 16.55 96.1245 17.15C96.5727 17.7 96.9214 18.4 97.1206 19.1C97.3696 19.85 97.4692 20.65 97.4692 21.5C97.4692 22.3 97.3696 23.05 97.1704 23.75C96.9712 24.5 96.6724 25.15 96.2739 25.7C95.8755 26.25 95.3276 26.7 94.7299 27.05C94.0825 27.4 93.3852 27.55 92.4887 27.55C92.1401 27.55 91.7416 27.5 91.393 27.45C91.0443 27.4 90.6459 27.25 90.2973 27.1C89.9486 26.95 89.6498 26.75 89.3509 26.5C89.0521 26.25 88.8031 26 88.6039 25.7H88.5541V31.5H86.014V15.6H85.9642ZM94.8794 21.45C94.8794 20.95 94.8296 20.4 94.6801 19.9C94.5307 19.4 94.3315 18.95 94.0825 18.6C93.8334 18.2 93.4848 17.9 93.0864 17.7C92.6879 17.45 92.2397 17.35 91.6918 17.35C90.5961 17.35 89.7992 17.7 89.2513 18.45C88.7035 19.2 88.4545 20.2 88.4545 21.45C88.4545 22.05 88.5043 22.6 88.6537 23.1C88.8031 23.6 89.0023 24.05 89.3011 24.4C89.6 24.75 89.8988 25.05 90.2973 25.25C90.6957 25.45 91.1439 25.55 91.6918 25.55C92.2895 25.55 92.7875 25.45 93.186 25.2C93.5844 24.95 93.9331 24.65 94.1821 24.25C94.4311 23.85 94.6303 23.45 94.7299 22.95C94.8295 22.45 94.8794 21.95 94.8794 21.45ZM99.3618 11.2H101.902V13.65H99.3618V11.2ZM99.3618 15.6H101.902V27.25H99.3618V15.6ZM104.193 11.2H106.733V27.25H104.193V11.2ZM114.602 27.55C113.656 27.55 112.859 27.4 112.112 27.1C111.365 26.8 110.767 26.35 110.269 25.85C109.771 25.3 109.373 24.65 109.124 23.9C108.875 23.15 108.725 22.3 108.725 21.45C108.725 20.55 108.875 19.75 109.124 19C109.373 18.25 109.771 17.6 110.269 17.05C110.767 16.5 111.365 16.1 112.112 15.8C112.859 15.5 113.656 15.35 114.602 15.35C115.549 15.35 116.346 15.5 117.093 15.8C117.84 16.1 118.437 16.55 118.935 17.05C119.433 17.6 119.832 18.25 120.081 19C120.33 19.75 120.479 20.55 120.479 21.45C120.479 22.35 120.33 23.15 120.081 23.9C119.832 24.65 119.433 25.3 118.935 25.85C118.437 26.4 117.84 26.8 117.093 27.1C116.346 27.4 115.549 27.55 114.602 27.55ZM114.602 25.55C115.15 25.55 115.648 25.45 116.096 25.2C116.495 24.95 116.844 24.65 117.142 24.25C117.391 23.85 117.591 23.4 117.74 22.95C117.84 22.45 117.939 21.95 117.939 21.45C117.939 20.95 117.889 20.45 117.74 19.95C117.64 19.45 117.391 19 117.142 18.65C116.893 18.25 116.545 17.95 116.096 17.7C115.698 17.45 115.2 17.35 114.602 17.35C114.054 17.35 113.556 17.45 113.108 17.7C112.71 17.95 112.361 18.25 112.062 18.65C111.813 19.05 111.614 19.45 111.465 19.95C111.365 20.45 111.265 20.95 111.265 21.45C111.265 21.95 111.315 22.45 111.465 22.95C111.564 23.45 111.813 23.9 112.062 24.25C112.311 24.65 112.66 24.95 113.108 25.2C113.556 25.45 114.054 25.55 114.602 25.55ZM121.177 15.6H123.119V12.1H125.659V15.6H127.95V17.5H125.659V23.7C125.659 23.95 125.659 24.2 125.709 24.4C125.709 24.6 125.809 24.75 125.858 24.9C125.958 25.05 126.058 25.15 126.207 25.2C126.356 25.25 126.605 25.3 126.904 25.3C127.103 25.3 127.253 25.3 127.452 25.3C127.651 25.3 127.801 25.25 128 25.2V27.2C127.701 27.25 127.452 27.25 127.153 27.3C126.904 27.35 126.605 27.35 126.307 27.35C125.609 27.35 125.111 27.3 124.663 27.15C124.265 27.05 123.916 26.85 123.717 26.6C123.468 26.35 123.318 26.05 123.219 25.65C123.119 25.3 123.069 24.85 123.069 24.35V17.55H121.127L121.177 15.6Z" fill="black" fill-opacity="0.3"/>
<path d="M18.9258 11.2002H30.6299L21.1172 18.0498L21.1357 18.1074L15.3398 22.2998L21.9531 20.6143L24.7529 29.2002L15.29 22.2998L5.82715 29.2002L9.46289 18.0498L0 11.1504L11.7041 11.2002L15.3398 0L18.9258 11.2002Z" fill="black" fill-opacity="0.3"/>
</svg>
