<svg width="107" height="32" viewBox="0 0 107 32" fill="none" xmlns="http://www.w3.org/2000/svg">
<path d="M4.08517 10.0133C5.195 7.8047 6.89693 5.94806 9.0009 4.65074C11.1049 3.35342 13.5281 2.66649 15.9998 2.66666C19.5932 2.66666 22.6118 3.98799 24.9198 6.13999L21.0972 9.96399C19.7145 8.64266 17.9572 7.96932 15.9998 7.96932C12.5265 7.96932 9.5865 10.316 8.53984 13.4667C8.27317 14.2667 8.12117 15.12 8.12117 16C8.12117 16.88 8.27317 17.7333 8.53984 18.5333C9.58784 21.6853 12.5265 24.0307 15.9998 24.0307C17.7932 24.0307 19.3198 23.5573 20.5145 22.7573C21.2071 22.3013 21.8 21.7096 22.2574 21.018C22.7149 20.3263 23.0273 19.5491 23.1758 18.7333H15.9998V13.576H28.5572C28.7145 14.448 28.7998 15.3573 28.7998 16.3027C28.7998 20.364 27.3465 23.7827 24.8238 26.1027C22.6185 28.14 19.5998 29.3333 15.9998 29.3333C14.2487 29.334 12.5146 28.9896 10.8966 28.3198C9.27857 27.65 7.80844 26.6679 6.57018 25.4296C5.33193 24.1914 4.34983 22.7213 3.68002 21.1033C3.0102 19.4853 2.6658 17.7511 2.6665 16C2.6665 13.848 3.18117 11.8133 4.08517 10.0133Z" fill="black" fill-opacity="0.3"/>
<path d="M40.9595 23.1962V6.92868H47.0098C48.1164 6.92868 49.0921 7.13248 49.9366 7.54008C50.7958 7.93312 51.4656 8.5154 51.9461 9.28692C52.4267 10.0439 52.6669 10.9683 52.6669 12.06C52.6669 13.1809 52.3975 14.1344 51.8588 14.9205C51.3345 15.7066 50.621 16.2889 49.7182 16.6673L53.4532 23.1962H50.0895L46.0924 16.0559L48.0145 17.1914H43.93V23.1962H40.9595ZM43.93 14.5711H47.0535C47.5922 14.5711 48.0582 14.4692 48.4514 14.2654C48.8445 14.0471 49.1503 13.7487 49.3687 13.3702C49.5872 12.9917 49.6964 12.555 49.6964 12.06C49.6964 11.5505 49.5872 11.1138 49.3687 10.7499C49.1503 10.3714 48.8445 10.0803 48.4514 9.87648C48.0582 9.65813 47.5922 9.54895 47.0535 9.54895H43.93V14.5711Z" fill="black" fill-opacity="0.3"/>
<path d="M58.7638 23.4582C57.9338 23.4582 57.213 23.3199 56.6014 23.0433C55.9898 22.7667 55.5166 22.3737 55.1817 21.8642C54.8468 21.3401 54.6793 20.736 54.6793 20.0518C54.6793 19.3968 54.8249 18.8145 55.1161 18.305C55.4074 17.7809 55.8588 17.3442 56.4704 16.9949C57.082 16.6455 57.8537 16.398 58.7857 16.2525L62.6736 15.6192V17.8028L59.3317 18.3705C58.7638 18.4724 58.3415 18.6544 58.0649 18.9164C57.7882 19.1784 57.6499 19.5205 57.6499 19.9427C57.6499 20.3503 57.8028 20.6778 58.1085 20.9253C58.4289 21.1582 58.8221 21.2746 59.288 21.2746C59.885 21.2746 60.4093 21.1509 60.8607 20.9034C61.3266 20.6414 61.6834 20.2848 61.9309 19.8335C62.1931 19.3822 62.3241 18.8873 62.3241 18.3487V15.2917C62.3241 14.7822 62.1202 14.36 61.7125 14.0252C61.3194 13.6759 60.7951 13.5012 60.1399 13.5012C59.5283 13.5012 58.9822 13.6686 58.5017 14.0034C58.0357 14.3237 57.6935 14.7531 57.4751 15.2917L55.138 14.1562C55.371 13.5303 55.735 12.9917 56.2301 12.5404C56.7398 12.0746 57.3368 11.7107 58.0212 11.4486C58.7056 11.1866 59.4482 11.0556 60.2491 11.0556C61.2247 11.0556 62.0838 11.2376 62.8265 11.6015C63.5691 11.9509 64.1443 12.4458 64.552 13.0863C64.9743 13.7123 65.1854 14.4474 65.1854 15.2917V23.1962H62.477V21.1655L63.0886 21.1218C62.7828 21.6313 62.4188 22.0607 61.9965 22.4101C61.5742 22.7449 61.0937 23.0069 60.5549 23.1962C60.0161 23.3709 59.4191 23.4582 58.7638 23.4582Z" fill="black" fill-opacity="0.3"/>
<path d="M73.0336 23.3272C71.694 23.3272 70.6528 22.9633 69.9102 22.2354C69.1821 21.493 68.8181 20.4522 68.8181 19.1129V13.8724H66.7649V11.3176H66.9833C67.5658 11.3176 68.0172 11.1648 68.3376 10.8591C68.6579 10.5534 68.8181 10.1094 68.8181 9.52711V8.61002H71.6794V11.3176H74.4097V13.8724H71.6794V18.9601C71.6794 19.3531 71.7449 19.6879 71.876 19.9645C72.0216 20.2411 72.24 20.4522 72.5313 20.5977C72.8371 20.7433 73.2229 20.8161 73.6889 20.8161C73.7908 20.8161 73.9073 20.8088 74.0384 20.7943C74.184 20.7797 74.3223 20.7651 74.4534 20.7506V23.1962C74.2495 23.2253 74.0165 23.2544 73.7544 23.2835C73.4923 23.3126 73.2521 23.3272 73.0336 23.3272Z" fill="black" fill-opacity="0.3"/>
<path d="M76.6395 23.1962V11.3176H79.5008V23.1962H76.6395ZM76.6395 9.98566V6.92868H79.5008V9.98566H76.6395Z" fill="black" fill-opacity="0.3"/>
<path d="M82.1427 23.1962V11.3176H84.8293V13.654L84.6109 13.2392C84.8876 12.5259 85.339 11.9873 85.9651 11.6233C86.6058 11.2448 87.3485 11.0556 88.193 11.0556C89.0667 11.0556 89.8385 11.2448 90.5083 11.6233C91.1927 12.0018 91.7242 12.5331 92.1028 13.2173C92.4814 13.8869 92.6707 14.6657 92.6707 15.5537V23.1962H89.8093V16.2306C89.8093 15.7066 89.7074 15.2553 89.5036 14.8768C89.2997 14.4983 89.0157 14.2072 88.6517 14.0034C88.3022 13.785 87.8872 13.6759 87.4067 13.6759C86.9407 13.6759 86.5257 13.785 86.1617 14.0034C85.7977 14.2072 85.5137 14.4983 85.3098 14.8768C85.106 15.2553 85.0041 15.7066 85.0041 16.2306V23.1962H82.1427Z" fill="black" fill-opacity="0.3"/>
<path d="M100.857 28C99.9683 28 99.1456 27.8544 98.3884 27.5633C97.6312 27.2721 96.9759 26.8645 96.4226 26.3405C95.8838 25.831 95.4907 25.2269 95.2431 24.5281L97.9079 23.5237C98.0826 24.0769 98.4248 24.5209 98.9345 24.8557C99.4587 25.205 100.099 25.3797 100.857 25.3797C101.439 25.3797 101.949 25.2705 102.386 25.0522C102.837 24.8338 103.186 24.5136 103.434 24.0914C103.682 23.6838 103.805 23.1889 103.805 22.6066V19.899L104.351 20.5541C103.944 21.2674 103.398 21.806 102.713 22.1699C102.029 22.5338 101.25 22.7158 100.376 22.7158C99.2694 22.7158 98.2792 22.461 97.4055 21.9515C96.5318 21.442 95.8474 20.7433 95.3523 19.8553C94.8573 18.9673 94.6097 17.9702 94.6097 16.8639C94.6097 15.743 94.8573 14.7458 95.3523 13.8724C95.8474 12.999 96.5245 12.3148 97.3837 11.8198C98.2428 11.3103 99.2184 11.0556 100.311 11.0556C101.199 11.0556 101.978 11.2448 102.648 11.6233C103.332 11.9873 103.9 12.5186 104.351 13.2173L103.958 13.9379V11.3176H106.667V22.6066C106.667 23.6402 106.412 24.5645 105.902 25.3797C105.407 26.1949 104.723 26.8354 103.849 27.3013C102.99 27.7671 101.992 28 100.857 28ZM100.726 20.0737C101.337 20.0737 101.869 19.9427 102.32 19.6806C102.786 19.4041 103.15 19.0256 103.412 18.5452C103.674 18.0648 103.805 17.5116 103.805 16.8857C103.805 16.2743 103.667 15.7284 103.39 15.248C103.128 14.7531 102.764 14.3673 102.298 14.0907C101.847 13.8142 101.323 13.6759 100.726 13.6759C100.129 13.6759 99.5897 13.8142 99.1092 14.0907C98.6287 14.3673 98.2501 14.7531 97.9734 15.248C97.7113 15.7284 97.5802 16.2743 97.5802 16.8857C97.5802 17.4971 97.7113 18.043 97.9734 18.5234C98.2501 19.0037 98.6214 19.3822 99.0874 19.6588C99.5679 19.9354 100.114 20.0737 100.726 20.0737Z" fill="black" fill-opacity="0.3"/>
</svg>
