<svg xmlns="http://www.w3.org/2000/svg" width="20" height="20" viewBox="0 0 20 20" fill="none">
<path d="M11.0281 0C12.1531 0.003 12.7241 0.009 13.2171 0.023L13.4111 0.03C13.6351 0.038 13.8561 0.0479999 14.1231 0.0599999C15.1871 0.11 15.9131 0.278 16.5501 0.525C17.2101 0.779 17.7661 1.123 18.3221 1.678C18.8308 2.17773 19.2243 2.78247 19.4751 3.45C19.7221 4.087 19.8901 4.813 19.9401 5.878C19.9521 6.144 19.9621 6.365 19.9701 6.59L19.9761 6.784C19.9911 7.276 19.9971 7.847 19.9991 8.972L20.0001 9.718V11.028C20.0025 11.7574 19.9948 12.4868 19.9771 13.216L19.9711 13.41C19.9631 13.635 19.9531 13.856 19.9411 14.122C19.8911 15.187 19.7211 15.912 19.4751 16.55C19.2243 17.2175 18.8308 17.8223 18.3221 18.322C17.8223 18.8307 17.2176 19.2242 16.5501 19.475C15.9131 19.722 15.1871 19.89 14.1231 19.94L13.4111 19.97L13.2171 19.976C12.7241 19.99 12.1531 19.997 11.0281 19.999L10.2821 20H8.97308C8.24334 20.0026 7.5136 19.9949 6.78408 19.977L6.59008 19.971C6.35269 19.962 6.11535 19.9517 5.87808 19.94C4.81408 19.89 4.08808 19.722 3.45008 19.475C2.78291 19.2241 2.17852 18.8306 1.67908 18.322C1.17003 17.8224 0.776189 17.2176 0.525081 16.55C0.278081 15.913 0.11008 15.187 0.0600805 14.122L0.0300805 13.41L0.0250806 13.216C0.00664665 12.4868 -0.00168758 11.7574 8.05157e-05 11.028V8.972C-0.00268738 8.2426 0.00464673 7.5132 0.0220806 6.784L0.0290806 6.59C0.0370806 6.365 0.0470805 6.144 0.0590805 5.878C0.109081 4.813 0.27708 4.088 0.52408 3.45C0.775775 2.7822 1.1703 2.17744 1.68008 1.678C2.17923 1.16955 2.78327 0.776074 3.45008 0.525C4.08808 0.278 4.81308 0.11 5.87808 0.0599999C6.14408 0.0479999 6.36608 0.038 6.59008 0.03L6.78408 0.0239999C7.51327 0.00623271 8.24268 -0.0014347 8.97208 0.000999928L11.0281 0ZM10.0001 5C8.674 5 7.40223 5.52678 6.46455 6.46447C5.52687 7.40215 5.00008 8.67392 5.00008 10C5.00008 11.3261 5.52687 12.5979 6.46455 13.5355C7.40223 14.4732 8.674 15 10.0001 15C11.3262 15 12.5979 14.4732 13.5356 13.5355C14.4733 12.5979 15.0001 11.3261 15.0001 10C15.0001 8.67392 14.4733 7.40215 13.5356 6.46447C12.5979 5.52678 11.3262 5 10.0001 5ZM10.0001 7C10.394 6.99993 10.7842 7.07747 11.1482 7.22817C11.5122 7.37887 11.8429 7.5998 12.1215 7.87833C12.4002 8.15686 12.6212 8.48754 12.772 8.85149C12.9229 9.21544 13.0005 9.60553 13.0006 9.9995C13.0006 10.3935 12.9231 10.7836 12.7724 11.1476C12.6217 11.5116 12.4008 11.8423 12.1223 12.121C11.8437 12.3996 11.513 12.6206 11.1491 12.7714C10.7851 12.9223 10.395 12.9999 10.0011 13C9.20543 13 8.44237 12.6839 7.87976 12.1213C7.31715 11.5587 7.00108 10.7956 7.00108 10C7.00108 9.20435 7.31715 8.44129 7.87976 7.87868C8.44237 7.31607 9.20543 7 10.0011 7M15.2511 3.5C14.9196 3.5 14.6016 3.6317 14.3672 3.86612C14.1328 4.10054 14.0011 4.41848 14.0011 4.75C14.0011 5.08152 14.1328 5.39946 14.3672 5.63388C14.6016 5.8683 14.9196 6 15.2511 6C15.5826 6 15.9005 5.8683 16.135 5.63388C16.3694 5.39946 16.5011 5.08152 16.5011 4.75C16.5011 4.41848 16.3694 4.10054 16.135 3.86612C15.9005 3.6317 15.5826 3.5 15.2511 3.5Z" fill="white" fill-opacity="1"/>
</svg>